# Blender 4.0.2
# www.blender.org
mtllib bowl.mtl
o Sphere
v 0.000000 0.410654 -2.317719
v 0.000000 0.133894 -2.273185
v 0.000000 -0.377493 -1.927113
v 0.452165 0.410654 -2.273185
v 0.443476 0.133894 -2.229506
v 0.417746 -0.132231 -2.100149
v 0.375961 -0.377493 -1.890084
v 0.319729 -0.592467 -1.607384
v 0.251209 -0.768891 -1.262914
v 0.173036 -0.899986 -0.869910
v 0.088213 -0.980714 -0.443476
v 0.886953 0.410654 -2.141293
v 0.869910 0.133894 -2.100149
v 0.819437 -0.132231 -1.978297
v 0.737474 -0.377493 -1.780420
v 0.627170 -0.592467 -1.514123
v 0.492765 -0.768891 -1.189639
v 0.339422 -0.899986 -0.819438
v 0.173036 -0.980714 -0.417746
v 1.287656 0.410654 -1.927113
v 1.262914 0.133894 -1.890084
v 1.189639 -0.132231 -1.780420
v 1.070647 -0.377493 -1.602336
v 0.910510 -0.592467 -1.362675
v 0.715383 -0.768891 -1.070647
v 0.492765 -0.899986 -0.737474
v 0.251209 -0.980714 -0.375961
v 1.638875 0.410654 -1.638875
v 1.607384 0.133894 -1.607384
v 1.514123 -0.132231 -1.514123
v 1.362675 -0.377493 -1.362674
v 1.158860 -0.592467 -1.158860
v 0.910510 -0.768891 -0.910510
v 0.627170 -0.899986 -0.627170
v 0.319729 -0.980714 -0.319729
v 1.927113 0.410654 -1.287655
v 1.890084 0.133894 -1.262914
v 1.780420 -0.132231 -1.189639
v 1.602336 -0.377493 -1.070646
v 1.362675 -0.592467 -0.910510
v 1.070647 -0.768891 -0.715383
v 0.737474 -0.899986 -0.492765
v 0.375961 -0.980714 -0.251209
v 2.141293 0.410654 -0.886952
v 2.100149 0.133894 -0.869910
v 1.978297 -0.132231 -0.819438
v 1.780420 -0.377493 -0.737474
v 1.514123 -0.592467 -0.627170
v 1.189639 -0.768891 -0.492764
v 0.819437 -0.899986 -0.339422
v 0.417746 -0.980714 -0.173036
v 2.273184 0.410654 -0.452164
v 2.229506 0.133894 -0.443476
v 2.100149 -0.132231 -0.417746
v 1.890084 -0.377493 -0.375961
v 1.607384 -0.592467 -0.319729
v 1.262914 -0.768891 -0.251209
v 0.869910 -0.899986 -0.173036
v 0.443476 -0.980714 -0.088213
v 2.317719 0.410654 0.000000
v 2.273185 0.133894 0.000000
v 2.141293 -0.132231 -0.000000
v 1.927113 -0.377493 0.000000
v 1.638875 -0.592467 -0.000000
v 1.287656 -0.768891 0.000000
v 0.886953 -0.899986 0.000000
v 0.452164 -0.980714 0.000000
v 2.273184 0.410654 0.452165
v 2.229506 0.133894 0.443476
v 2.100149 -0.132231 0.417745
v 1.890084 -0.377493 0.375961
v 1.607384 -0.592467 0.319729
v 1.262914 -0.768891 0.251209
v 0.869910 -0.899986 0.173036
v 0.443476 -0.980714 0.088213
v 2.141292 0.410654 0.886953
v 2.100148 0.133894 0.869910
v 1.978297 -0.132231 0.819437
v 1.780420 -0.377493 0.737474
v 1.514123 -0.592467 0.627170
v 1.189638 -0.768891 0.492765
v 0.819437 -0.899986 0.339422
v 0.417745 -0.980714 0.173036
v 1.927112 0.410654 1.287656
v 1.890084 0.133894 1.262914
v 1.780420 -0.132231 1.189639
v 1.602335 -0.377493 1.070647
v 1.362675 -0.592467 0.910510
v 1.070646 -0.768891 0.715383
v 0.737474 -0.899986 0.492765
v 0.375961 -0.980714 0.251209
v 1.638874 0.410654 1.638875
v 1.607384 0.133894 1.607384
v 1.514123 -0.132231 1.514123
v 1.362674 -0.377493 1.362674
v 1.158859 -0.592467 1.158859
v 0.910510 -0.768891 0.910510
v 0.627170 -0.899986 0.627170
v 0.319728 -0.980714 0.319729
v 1.287655 0.410654 1.927112
v 1.262913 0.133894 1.890084
v 1.189639 -0.132231 1.780420
v 1.070646 -0.377493 1.602336
v 0.910510 -0.592467 1.362675
v 0.715383 -0.768891 1.070646
v 0.492764 -0.899986 0.737474
v 0.251209 -0.980714 0.375961
v 0.886952 0.410654 2.141293
v 0.869910 0.133894 2.100148
v 0.819437 -0.132231 1.978297
v 0.737474 -0.377493 1.780420
v 0.627170 -0.592467 1.514123
v 0.492764 -0.768891 1.189638
v 0.339422 -0.899986 0.819437
v 0.173036 -0.980714 0.417745
v 0.452164 0.410654 2.273184
v 0.443476 0.133894 2.229506
v 0.417746 -0.132231 2.100148
v 0.375961 -0.377493 1.890084
v 0.319729 -0.592467 1.607384
v 0.251209 -0.768891 1.262913
v 0.173036 -0.899986 0.869910
v 0.088213 -0.980714 0.443476
v -0.000001 0.410654 2.317718
v -0.000000 0.133894 2.273184
v 0.000000 -0.132231 2.141293
v -0.000000 -0.377493 1.927112
v -0.000000 -0.592467 1.638875
v -0.000000 -0.768891 1.287655
v -0.000000 -0.899986 0.886953
v -0.000000 -0.980714 0.452164
v -0.452165 0.410654 2.273183
v -0.443477 0.133894 2.229506
v -0.417745 -0.132231 2.100148
v -0.375961 -0.377493 1.890083
v -0.319729 -0.592467 1.607384
v -0.251209 -0.768891 1.262913
v -0.173036 -0.899986 0.869910
v -0.088213 -0.980714 0.443476
v -0.886953 0.410654 2.141291
v -0.869910 0.133894 2.100148
v -0.819437 -0.132231 1.978297
v -0.737474 -0.377493 1.780419
v -0.627170 -0.592467 1.514123
v -0.492765 -0.768891 1.189638
v -0.339422 -0.899986 0.819437
v -0.173036 -0.980714 0.417745
v -1.287656 0.410654 1.927111
v -1.262914 0.133894 1.890083
v -1.189638 -0.132231 1.780420
v -1.070646 -0.377493 1.602335
v -0.910510 -0.592467 1.362674
v -0.715383 -0.768891 1.070646
v -0.492765 -0.899986 0.737474
v -0.251209 -0.980714 0.375961
v -1.638874 0.410654 1.638873
v -1.607384 0.133894 1.607384
v -1.514122 -0.132231 1.514123
v -1.362674 -0.377493 1.362674
v -1.158859 -0.592467 1.158859
v -0.910510 -0.768891 0.910509
v -0.627170 -0.899986 0.627170
v -0.319728 -0.980714 0.319728
v 0.000000 -1.007973 0.000000
v -1.927112 0.410654 1.287654
v -1.890084 0.133894 1.262913
v -1.780420 -0.132231 1.189638
v -1.602335 -0.377493 1.070646
v -1.362674 -0.592467 0.910510
v -1.070646 -0.768891 0.715382
v -0.737474 -0.899986 0.492764
v -0.375961 -0.980714 0.251209
v -2.141292 0.410654 0.886951
v -2.100148 0.133894 0.869909
v -1.978296 -0.132231 0.819437
v -1.780419 -0.377493 0.737473
v -1.514123 -0.592467 0.627170
v -1.189638 -0.768891 0.492764
v -0.819437 -0.899986 0.339422
v -0.417745 -0.980714 0.173036
v -2.273183 0.410654 0.452163
v -2.229506 0.133894 0.443476
v -2.100148 -0.132231 0.417745
v -1.890083 -0.377493 0.375961
v -1.607384 -0.592467 0.319729
v -1.262913 -0.768891 0.251209
v -0.869910 -0.899986 0.173036
v -0.443476 -0.980714 0.088213
v -2.317717 0.410654 -0.000001
v -2.273184 0.133894 -0.000001
v -2.141293 -0.132231 -0.000000
v -1.927112 -0.377493 -0.000000
v -1.638875 -0.592467 -0.000000
v -1.287655 -0.768891 -0.000000
v -0.886952 -0.899986 -0.000000
v -0.452164 -0.980714 -0.000000
v -2.273182 0.410654 -0.452165
v -2.229505 0.133894 -0.443477
v -2.100148 -0.132231 -0.417745
v -1.890083 -0.377493 -0.375961
v -1.607384 -0.592467 -0.319729
v -1.262913 -0.768891 -0.251209
v -0.869910 -0.899986 -0.173036
v -0.443476 -0.980714 -0.088213
v -2.141291 0.410654 -0.886953
v -2.100148 0.133894 -0.869910
v -1.978296 -0.132231 -0.819437
v -1.780419 -0.377493 -0.737474
v -1.514123 -0.592467 -0.627170
v -1.189638 -0.768891 -0.492764
v -0.819437 -0.899986 -0.339422
v -0.417745 -0.980714 -0.173036
v -1.927110 0.410654 -1.287655
v -1.890083 0.133894 -1.262914
v -1.780419 -0.132231 -1.189638
v -1.602335 -0.377493 -1.070646
v -1.362674 -0.592467 -0.910510
v -1.070645 -0.768891 -0.715383
v -0.737474 -0.899986 -0.492764
v -0.375961 -0.980714 -0.251209
v -1.638873 0.410654 -1.638874
v -1.607383 0.133894 -1.607384
v -1.514122 -0.132231 -1.514122
v -1.362673 -0.377493 -1.362674
v -1.158859 -0.592467 -1.158859
v -0.910509 -0.768891 -0.910510
v -0.627170 -0.899986 -0.627170
v -0.319728 -0.980714 -0.319728
v -1.287653 0.410654 -1.927112
v -1.262913 0.133894 -1.890083
v -1.189638 -0.132231 -1.780419
v -1.070646 -0.377493 -1.602335
v -0.910510 -0.592467 -1.362674
v -0.715382 -0.768891 -1.070646
v -0.492764 -0.899986 -0.737474
v -0.251209 -0.980714 -0.375961
v -0.886951 0.410654 -2.141291
v -0.869909 0.133894 -2.100148
v -0.819437 -0.132231 -1.978296
v -0.737473 -0.377493 -1.780419
v -0.627170 -0.592467 -1.514123
v -0.492764 -0.768891 -1.189638
v -0.339422 -0.899986 -0.819437
v -0.173036 -0.980714 -0.417745
v -0.452163 0.410654 -2.273182
v -0.443475 0.133894 -2.229505
v -0.417745 -0.132231 -2.100148
v -0.375960 -0.377493 -1.890083
v -0.319728 -0.592467 -1.607384
v -0.251208 -0.768891 -1.262913
v -0.173036 -0.899986 -0.869910
v -0.088213 -0.980714 -0.443476
v 0.000000 -0.132231 -2.141292
v 0.000000 -0.592467 -1.638875
v 0.000001 -0.768891 -1.287654
v 0.000000 -0.899986 -0.886952
v 0.000000 -0.980714 -0.452164
v 0.000000 0.416216 -2.225457
v 0.000000 0.144898 -2.182236
v 0.000000 -0.346126 -1.849855
v 0.434165 0.416216 -2.182695
v 0.425733 0.144898 -2.140305
v 0.401020 -0.110637 -2.016062
v 0.360889 -0.346126 -1.814311
v 0.306885 -0.552515 -1.542813
v 0.241085 -0.721869 -1.212015
v 0.166020 -0.847684 -0.834641
v 0.084578 -0.925127 -0.425203
v 0.851645 0.416216 -2.056054
v 0.835106 0.144898 -2.016123
v 0.786628 -0.110637 -1.899089
v 0.707909 -0.346126 -1.709043
v 0.601976 -0.552515 -1.453298
v 0.472905 -0.721869 -1.141693
v 0.325661 -0.847684 -0.786214
v 0.165906 -0.925127 -0.400532
v 1.236398 0.416216 -1.850399
v 1.212385 0.144898 -1.814463
v 1.142007 -0.110637 -1.709135
v 1.027724 -0.346126 -1.538098
v 0.873933 -0.552515 -1.307934
v 0.686551 -0.721869 -1.027497
v 0.472786 -0.847684 -0.707574
v 0.240858 -0.925127 -0.360469
v 1.573636 0.416216 -1.573635
v 1.543074 0.144898 -1.543074
v 1.453500 -0.110637 -1.453500
v 1.308045 -0.346126 -1.308045
v 1.112306 -0.552515 -1.112306
v 0.873814 -0.721869 -0.873814
v 0.601742 -0.847684 -0.601742
v 0.306554 -0.925127 -0.306554
v 1.850400 0.416216 -1.236397
v 1.814463 0.144898 -1.212385
v 1.709135 -0.110637 -1.142008
v 1.538098 -0.346126 -1.027724
v 1.307934 -0.552515 -0.873933
v 1.027497 -0.721869 -0.686551
v 0.707574 -0.847684 -0.472786
v 0.360469 -0.925127 -0.240858
v 2.056054 0.416216 -0.851645
v 2.016123 0.144898 -0.835105
v 1.899089 -0.110637 -0.786629
v 1.709043 -0.346126 -0.707909
v 1.453298 -0.552515 -0.601976
v 1.141693 -0.721869 -0.472905
v 0.786214 -0.847684 -0.325661
v 0.400532 -0.925127 -0.165906
v 2.182695 0.416216 -0.434165
v 2.140305 0.144898 -0.425733
v 2.016062 -0.110637 -0.401020
v 1.814310 -0.346126 -0.360889
v 1.542813 -0.552515 -0.306885
v 1.212015 -0.721869 -0.241085
v 0.834641 -0.847684 -0.166020
v 0.425203 -0.925127 -0.084578
v 2.225456 0.416216 0.000000
v 2.182236 0.144898 0.000000
v 2.055559 -0.110637 -0.000000
v 1.849855 -0.346126 0.000000
v 1.573038 -0.552515 -0.000000
v 1.235759 -0.721869 0.000000
v 0.850992 -0.847684 0.000000
v 0.433533 -0.925127 0.000000
v 2.182694 0.416216 0.434165
v 2.140305 0.144898 0.425733
v 2.016062 -0.110637 0.401020
v 1.814310 -0.346126 0.360889
v 1.542813 -0.552515 0.306885
v 1.212015 -0.721869 0.241085
v 0.834641 -0.847684 0.166020
v 0.425203 -0.925127 0.084578
v 2.056053 0.416216 0.851646
v 2.016123 0.144898 0.835106
v 1.899089 -0.110637 0.786628
v 1.709043 -0.346126 0.707909
v 1.453298 -0.552515 0.601976
v 1.141693 -0.721869 0.472905
v 0.786214 -0.847684 0.325661
v 0.400532 -0.925127 0.165906
v 1.850399 0.416216 1.236397
v 1.814462 0.144898 1.212385
v 1.709135 -0.110637 1.142007
v 1.538098 -0.346126 1.027724
v 1.307934 -0.552515 0.873933
v 1.027496 -0.721869 0.686551
v 0.707574 -0.847684 0.472786
v 0.360469 -0.925127 0.240858
v 1.573634 0.416216 1.573635
v 1.543073 0.144898 1.543074
v 1.453500 -0.110637 1.453500
v 1.308045 -0.346126 1.308045
v 1.112306 -0.552515 1.112306
v 0.873814 -0.721869 0.873814
v 0.601742 -0.847684 0.601742
v 0.306554 -0.925127 0.306554
v 1.236396 0.416216 1.850399
v 1.212385 0.144898 1.814463
v 1.142008 -0.110637 1.709135
v 1.027724 -0.346126 1.538098
v 0.873933 -0.552515 1.307934
v 0.686551 -0.721869 1.027496
v 0.472786 -0.847684 0.707574
v 0.240858 -0.925127 0.360469
v 0.851644 0.416216 2.056053
v 0.835105 0.144898 2.016123
v 0.786628 -0.110637 1.899089
v 0.707909 -0.346126 1.709043
v 0.601976 -0.552515 1.453298
v 0.472904 -0.721869 1.141693
v 0.325660 -0.847684 0.786214
v 0.165906 -0.925127 0.400532
v 0.434164 0.416216 2.182694
v 0.425733 0.144898 2.140304
v 0.401020 -0.110637 2.016062
v 0.360888 -0.346126 1.814310
v 0.306885 -0.552515 1.542813
v 0.241084 -0.721869 1.212015
v 0.166020 -0.847684 0.834640
v 0.084578 -0.925127 0.425203
v -0.000001 0.416216 2.225455
v -0.000000 0.144898 2.182235
v 0.000000 -0.110637 2.055559
v -0.000000 -0.346126 1.849854
v -0.000000 -0.552515 1.573038
v -0.000000 -0.721869 1.235759
v -0.000000 -0.847684 0.850992
v -0.000000 -0.925127 0.433533
v -0.434166 0.416216 2.182694
v -0.425733 0.144898 2.140304
v -0.401020 -0.110637 2.016062
v -0.360889 -0.346126 1.814310
v -0.306885 -0.552515 1.542813
v -0.241085 -0.721869 1.212014
v -0.166020 -0.847684 0.834640
v -0.084578 -0.925127 0.425202
v -0.851646 0.416216 2.056052
v -0.835106 0.144898 2.016122
v -0.786628 -0.110637 1.899089
v -0.707909 -0.346126 1.709042
v -0.601976 -0.552515 1.453298
v -0.472905 -0.721869 1.141692
v -0.325661 -0.847684 0.786214
v -0.165906 -0.925127 0.400532
v -1.236397 0.416216 1.850398
v -1.212385 0.144898 1.814462
v -1.142007 -0.110637 1.709135
v -1.027724 -0.346126 1.538098
v -0.873933 -0.552515 1.307933
v -0.686551 -0.721869 1.027496
v -0.472786 -0.847684 0.707574
v -0.240858 -0.925127 0.360469
v -1.573635 0.416216 1.573634
v -1.543074 0.144898 1.543073
v -1.453499 -0.110637 1.453500
v -1.308045 -0.346126 1.308044
v -1.112306 -0.552515 1.112306
v -0.873814 -0.721869 0.873813
v -0.601742 -0.847684 0.601742
v -0.306554 -0.925127 0.306554
v -0.000000 -0.951228 -0.000000
v -1.850399 0.416216 1.236396
v -1.814462 0.144898 1.212384
v -1.709134 -0.110637 1.142007
v -1.538098 -0.346126 1.027724
v -1.307933 -0.552515 0.873933
v -1.027496 -0.721869 0.686551
v -0.707574 -0.847684 0.472786
v -0.360469 -0.925127 0.240858
v -2.056052 0.416216 0.851644
v -2.016123 0.144898 0.835105
v -1.899089 -0.110637 0.786628
v -1.709042 -0.346126 0.707908
v -1.453298 -0.552515 0.601976
v -1.141692 -0.721869 0.472904
v -0.786214 -0.847684 0.325660
v -0.400532 -0.925127 0.165906
v -2.182693 0.416216 0.434164
v -2.140304 0.144898 0.425732
v -2.016062 -0.110637 0.401020
v -1.814310 -0.346126 0.360888
v -1.542813 -0.552515 0.306884
v -1.212014 -0.721869 0.241084
v -0.834640 -0.847684 0.166020
v -0.425202 -0.925127 0.084578
v -2.225455 0.416216 -0.000001
v -2.182235 0.144898 -0.000001
v -2.055558 -0.110637 -0.000000
v -1.849854 -0.346126 -0.000000
v -1.573038 -0.552515 -0.000000
v -1.235759 -0.721869 -0.000000
v -0.850992 -0.847684 -0.000000
v -0.433533 -0.925127 -0.000000
v -2.182693 0.416216 -0.434166
v -2.140304 0.144898 -0.425734
v -2.016062 -0.110637 -0.401020
v -1.814310 -0.346126 -0.360889
v -1.542813 -0.552515 -0.306885
v -1.212014 -0.721869 -0.241085
v -0.834640 -0.847684 -0.166020
v -0.425202 -0.925127 -0.084578
v -2.056051 0.416216 -0.851646
v -2.016122 0.144898 -0.835106
v -1.899089 -0.110637 -0.786628
v -1.709042 -0.346126 -0.707909
v -1.453298 -0.552515 -0.601976
v -1.141692 -0.721869 -0.472905
v -0.786214 -0.847684 -0.325661
v -0.400532 -0.925127 -0.165906
v -1.850397 0.416216 -1.236397
v -1.814462 0.144898 -1.212385
v -1.709134 -0.110637 -1.142007
v -1.538097 -0.346126 -1.027724
v -1.307933 -0.552515 -0.873933
v -1.027495 -0.721869 -0.686551
v -0.707574 -0.847684 -0.472786
v -0.360469 -0.925127 -0.240858
v -1.573633 0.416216 -1.573635
v -1.543073 0.144898 -1.543073
v -1.453499 -0.110637 -1.453499
v -1.308044 -0.346126 -1.308045
v -1.112306 -0.552515 -1.112306
v -0.873813 -0.721869 -0.873814
v -0.601742 -0.847684 -0.601742
v -0.306554 -0.925127 -0.306554
v -1.236395 0.416216 -1.850398
v -1.212384 0.144898 -1.814462
v -1.142007 -0.110637 -1.709134
v -1.027723 -0.346126 -1.538098
v -0.873933 -0.552515 -1.307933
v -0.686550 -0.721869 -1.027496
v -0.472786 -0.847684 -0.707574
v -0.240858 -0.925127 -0.360469
v -0.851644 0.416216 -2.056052
v -0.835105 0.144898 -2.016122
v -0.786628 -0.110637 -1.899089
v -0.707908 -0.346126 -1.709042
v -0.601976 -0.552515 -1.453298
v -0.472904 -0.721869 -1.141692
v -0.325660 -0.847684 -0.786214
v -0.165906 -0.925127 -0.400532
v -0.434163 0.416216 -2.182693
v -0.425732 0.144898 -2.140304
v -0.401019 -0.110637 -2.016061
v -0.360888 -0.346126 -1.814309
v -0.306884 -0.552515 -1.542813
v -0.241084 -0.721869 -1.212014
v -0.166020 -0.847684 -0.834640
v -0.084578 -0.925127 -0.425202
v 0.000000 -0.110637 -2.055558
v 0.000000 -0.552515 -1.573038
v 0.000001 -0.721869 -1.235758
v 0.000000 -0.847684 -0.850992
v 0.000000 -0.925127 -0.433533
vn 0.0180 -0.9830 -0.1825
vn 0.0059 -0.9982 -0.0602
vn 0.0968 -0.1581 -0.9827
vn 0.0879 -0.4423 -0.8925
vn 0.0740 -0.6560 -0.7512
vn 0.0588 -0.8002 -0.5968
vn 0.0442 -0.8927 -0.4484
vn 0.0306 -0.9500 -0.3108
vn 0.0907 -0.9500 -0.2989
vn 0.0532 -0.9830 -0.1755
vn 0.0176 -0.9982 -0.0579
vn 0.2866 -0.1581 -0.9449
vn 0.2603 -0.4423 -0.8582
vn 0.2191 -0.6560 -0.7223
vn 0.1741 -0.8002 -0.5739
vn 0.1308 -0.8927 -0.4312
vn 0.3558 -0.6560 -0.6657
vn 0.2827 -0.8002 -0.5289
vn 0.2124 -0.8927 -0.3974
vn 0.1472 -0.9500 -0.2754
vn 0.0865 -0.9830 -0.1617
vn 0.0285 -0.9982 -0.0533
vn 0.4655 -0.1581 -0.8708
vn 0.4228 -0.4423 -0.7909
vn 0.1164 -0.9830 -0.1418
vn 0.0384 -0.9982 -0.0467
vn 0.6264 -0.1581 -0.7633
vn 0.5690 -0.4423 -0.6933
vn 0.4788 -0.6560 -0.5835
vn 0.3805 -0.8002 -0.4636
vn 0.2859 -0.8927 -0.3483
vn 0.1981 -0.9500 -0.2414
vn 0.5835 -0.6560 -0.4788
vn 0.4636 -0.8002 -0.3805
vn 0.3483 -0.8927 -0.2859
vn 0.2414 -0.9500 -0.1981
vn 0.1418 -0.9830 -0.1164
vn 0.0467 -0.9982 -0.0384
vn 0.7633 -0.1581 -0.6264
vn 0.6933 -0.4423 -0.5690
vn 0.1617 -0.9830 -0.0865
vn 0.0533 -0.9982 -0.0285
vn 0.8708 -0.1581 -0.4655
vn 0.7909 -0.4423 -0.4228
vn 0.6657 -0.6560 -0.3558
vn 0.5289 -0.8002 -0.2827
vn 0.3974 -0.8927 -0.2124
vn 0.2754 -0.9500 -0.1472
vn 0.5739 -0.8002 -0.1741
vn 0.4312 -0.8927 -0.1308
vn 0.2989 -0.9500 -0.0907
vn 0.1755 -0.9830 -0.0532
vn 0.0579 -0.9982 -0.0176
vn 0.9449 -0.1581 -0.2866
vn 0.8582 -0.4423 -0.2603
vn 0.7223 -0.6560 -0.2191
vn 0.0602 -0.9982 -0.0059
vn 0.9827 -0.1581 -0.0968
vn 0.8925 -0.4423 -0.0879
vn 0.7512 -0.6560 -0.0740
vn 0.5968 -0.8002 -0.0588
vn 0.4484 -0.8927 -0.0442
vn 0.3108 -0.9500 -0.0306
vn 0.1825 -0.9830 -0.0180
vn 0.4484 -0.8927 0.0442
vn 0.3108 -0.9500 0.0306
vn 0.1825 -0.9830 0.0180
vn 0.0602 -0.9982 0.0059
vn 0.9827 -0.1581 0.0968
vn 0.8925 -0.4423 0.0879
vn 0.7512 -0.6560 0.0740
vn 0.5968 -0.8002 0.0588
vn 0.9449 -0.1581 0.2866
vn 0.8582 -0.4423 0.2603
vn 0.7223 -0.6560 0.2191
vn 0.5739 -0.8002 0.1741
vn 0.4312 -0.8927 0.1308
vn 0.2989 -0.9500 0.0907
vn 0.1755 -0.9830 0.0532
vn 0.0579 -0.9982 0.0176
vn 0.3974 -0.8927 0.2124
vn 0.2754 -0.9500 0.1472
vn 0.1617 -0.9830 0.0865
vn 0.0533 -0.9982 0.0285
vn 0.8708 -0.1581 0.4655
vn 0.7909 -0.4423 0.4228
vn 0.6657 -0.6560 0.3558
vn 0.5289 -0.8002 0.2827
vn 0.6933 -0.4423 0.5690
vn 0.5835 -0.6560 0.4788
vn 0.4636 -0.8002 0.3805
vn 0.3483 -0.8927 0.2859
vn 0.2414 -0.9500 0.1981
vn 0.1418 -0.9830 0.1164
vn 0.0467 -0.9982 0.0384
vn 0.7633 -0.1581 0.6264
vn 0.1981 -0.9500 0.2414
vn 0.1164 -0.9830 0.1418
vn 0.0384 -0.9982 0.0467
vn 0.6264 -0.1581 0.7633
vn 0.5690 -0.4423 0.6933
vn 0.4788 -0.6560 0.5835
vn 0.3805 -0.8002 0.4636
vn 0.2859 -0.8927 0.3483
vn 0.4228 -0.4423 0.7910
vn 0.3558 -0.6560 0.6657
vn 0.2827 -0.8002 0.5289
vn 0.2124 -0.8927 0.3974
vn 0.1472 -0.9500 0.2754
vn 0.0865 -0.9830 0.1617
vn 0.0285 -0.9982 0.0533
vn 0.4655 -0.1581 0.8708
vn 0.0907 -0.9500 0.2989
vn 0.0532 -0.9830 0.1755
vn 0.0176 -0.9982 0.0579
vn 0.2866 -0.1581 0.9449
vn 0.2603 -0.4423 0.8582
vn 0.2191 -0.6560 0.7223
vn 0.1741 -0.8002 0.5739
vn 0.1308 -0.8927 0.4312
vn 0.0740 -0.6560 0.7512
vn 0.0588 -0.8002 0.5968
vn 0.0442 -0.8927 0.4484
vn 0.0306 -0.9500 0.3108
vn 0.0180 -0.9830 0.1825
vn 0.0059 -0.9982 0.0602
vn 0.0968 -0.1581 0.9827
vn 0.0879 -0.4423 0.8925
vn -0.0180 -0.9830 0.1825
vn -0.0059 -0.9982 0.0602
vn -0.0968 -0.1581 0.9827
vn -0.0879 -0.4423 0.8925
vn -0.0740 -0.6560 0.7512
vn -0.0588 -0.8002 0.5968
vn -0.0442 -0.8927 0.4484
vn -0.0306 -0.9500 0.3108
vn -0.1741 -0.8002 0.5739
vn -0.1308 -0.8927 0.4312
vn -0.0907 -0.9500 0.2989
vn -0.0532 -0.9830 0.1755
vn -0.0176 -0.9982 0.0579
vn -0.2866 -0.1581 0.9449
vn -0.2603 -0.4423 0.8582
vn -0.2191 -0.6560 0.7223
vn -0.0285 -0.9982 0.0533
vn -0.4655 -0.1581 0.8708
vn -0.4228 -0.4423 0.7909
vn -0.3558 -0.6560 0.6657
vn -0.2827 -0.8002 0.5289
vn -0.2124 -0.8927 0.3974
vn -0.1472 -0.9500 0.2754
vn -0.0865 -0.9830 0.1617
vn -0.3805 -0.8002 0.4636
vn -0.2859 -0.8927 0.3483
vn -0.1981 -0.9500 0.2414
vn -0.1164 -0.9830 0.1418
vn -0.0384 -0.9982 0.0467
vn -0.6264 -0.1581 0.7633
vn -0.5690 -0.4423 0.6933
vn -0.4788 -0.6560 0.5835
vn -0.0467 -0.9982 0.0384
vn -0.7633 -0.1581 0.6264
vn -0.6933 -0.4423 0.5690
vn -0.5835 -0.6560 0.4788
vn -0.4636 -0.8002 0.3805
vn -0.3483 -0.8927 0.2859
vn -0.2414 -0.9500 0.1981
vn -0.1418 -0.9830 0.1164
vn -0.3974 -0.8927 0.2124
vn -0.2754 -0.9500 0.1472
vn -0.1617 -0.9830 0.0865
vn -0.0533 -0.9982 0.0285
vn -0.8708 -0.1581 0.4655
vn -0.7909 -0.4423 0.4228
vn -0.6657 -0.6560 0.3558
vn -0.5289 -0.8002 0.2827
vn -0.9449 -0.1581 0.2866
vn -0.8582 -0.4423 0.2603
vn -0.7223 -0.6560 0.2191
vn -0.5739 -0.8002 0.1741
vn -0.4312 -0.8927 0.1308
vn -0.2989 -0.9500 0.0907
vn -0.1755 -0.9830 0.0532
vn -0.0579 -0.9982 0.0176
vn -0.4484 -0.8927 0.0442
vn -0.3108 -0.9500 0.0306
vn -0.1825 -0.9830 0.0180
vn -0.0602 -0.9982 0.0059
vn -0.9827 -0.1581 0.0968
vn -0.8925 -0.4423 0.0879
vn -0.7512 -0.6560 0.0740
vn -0.5968 -0.8002 0.0588
vn -0.8925 -0.4423 -0.0879
vn -0.7512 -0.6560 -0.0740
vn -0.5968 -0.8002 -0.0588
vn -0.4484 -0.8927 -0.0442
vn -0.3108 -0.9500 -0.0306
vn -0.1825 -0.9830 -0.0180
vn -0.0602 -0.9982 -0.0059
vn -0.9827 -0.1581 -0.0968
vn -0.2989 -0.9500 -0.0907
vn -0.1755 -0.9830 -0.0532
vn -0.0579 -0.9982 -0.0176
vn -0.9449 -0.1581 -0.2866
vn -0.8582 -0.4423 -0.2603
vn -0.7223 -0.6560 -0.2191
vn -0.5739 -0.8002 -0.1741
vn -0.4312 -0.8927 -0.1308
vn -0.6657 -0.6560 -0.3558
vn -0.5289 -0.8002 -0.2827
vn -0.3974 -0.8927 -0.2124
vn -0.2754 -0.9500 -0.1472
vn -0.1617 -0.9830 -0.0865
vn -0.0533 -0.9982 -0.0285
vn -0.8708 -0.1581 -0.4655
vn -0.7909 -0.4423 -0.4228
vn -0.1418 -0.9830 -0.1164
vn -0.0467 -0.9982 -0.0384
vn -0.7633 -0.1581 -0.6264
vn -0.6933 -0.4423 -0.5690
vn -0.5835 -0.6560 -0.4788
vn -0.4636 -0.8002 -0.3805
vn -0.3483 -0.8927 -0.2859
vn -0.2414 -0.9500 -0.1981
vn -0.4788 -0.6560 -0.5835
vn -0.3805 -0.8002 -0.4636
vn -0.2859 -0.8927 -0.3483
vn -0.1981 -0.9500 -0.2414
vn -0.1164 -0.9830 -0.1418
vn -0.0384 -0.9982 -0.0467
vn -0.6264 -0.1581 -0.7633
vn -0.5690 -0.4423 -0.6933
vn -0.0865 -0.9830 -0.1617
vn -0.0285 -0.9982 -0.0533
vn -0.4655 -0.1581 -0.8708
vn -0.4228 -0.4423 -0.7910
vn -0.3558 -0.6560 -0.6657
vn -0.2827 -0.8002 -0.5289
vn -0.2124 -0.8927 -0.3974
vn -0.1472 -0.9500 -0.2754
vn -0.1741 -0.8002 -0.5739
vn -0.1308 -0.8927 -0.4312
vn -0.0907 -0.9500 -0.2989
vn -0.0532 -0.9830 -0.1755
vn -0.0176 -0.9982 -0.0579
vn -0.2866 -0.1581 -0.9449
vn -0.2603 -0.4423 -0.8582
vn -0.2191 -0.6560 -0.7223
vn -0.0059 -0.9982 -0.0602
vn -0.0968 -0.1581 -0.9827
vn -0.0879 -0.4423 -0.8925
vn -0.0740 -0.6560 -0.7512
vn -0.0588 -0.8002 -0.5968
vn -0.0442 -0.8927 -0.4484
vn -0.0306 -0.9500 -0.3108
vn -0.0180 -0.9830 -0.1825
vn -0.0180 0.9831 0.1824
vn -0.0059 0.9982 0.0601
vn -0.0968 0.1566 0.9829
vn -0.0879 0.4424 0.8925
vn -0.0740 0.6561 0.7511
vn -0.0588 0.8003 0.5967
vn -0.0442 0.8928 0.4483
vn -0.0306 0.9500 0.3106
vn -0.0906 0.9500 0.2987
vn -0.0532 0.9831 0.1754
vn -0.0175 0.9982 0.0578
vn -0.2867 0.1566 0.9451
vn -0.2603 0.4424 0.8582
vn -0.2191 0.6561 0.7222
vn -0.1741 0.8003 0.5738
vn -0.1308 0.8928 0.4311
vn -0.3558 0.6561 0.6656
vn -0.2826 0.8003 0.5288
vn -0.2123 0.8928 0.3973
vn -0.1471 0.9500 0.2753
vn -0.0864 0.9831 0.1616
vn -0.0285 0.9982 0.0533
vn -0.4656 0.1566 0.8710
vn -0.4227 0.4424 0.7909
vn -0.1163 0.9831 0.1417
vn -0.0383 0.9982 0.0467
vn -0.6266 0.1566 0.7635
vn -0.5689 0.4424 0.6932
vn -0.4788 0.6561 0.5834
vn -0.3804 0.8003 0.4635
vn -0.2858 0.8928 0.3482
vn -0.1980 0.9500 0.2413
vn -0.5834 0.6561 0.4788
vn -0.4635 0.8003 0.3804
vn -0.3482 0.8928 0.2858
vn -0.2413 0.9500 0.1980
vn -0.1417 0.9831 0.1163
vn -0.0467 0.9982 0.0383
vn -0.7635 0.1566 0.6266
vn -0.6932 0.4424 0.5689
vn -0.1616 0.9831 0.0864
vn -0.0533 0.9982 0.0285
vn -0.8710 0.1566 0.4656
vn -0.7909 0.4424 0.4227
vn -0.6656 0.6561 0.3558
vn -0.5288 0.8003 0.2826
vn -0.3973 0.8928 0.2123
vn -0.2753 0.9500 0.1471
vn -0.5738 0.8003 0.1740
vn -0.4311 0.8928 0.1308
vn -0.2987 0.9500 0.0906
vn -0.1754 0.9831 0.0532
vn -0.0578 0.9982 0.0175
vn -0.9451 0.1566 0.2867
vn -0.8582 0.4424 0.2603
vn -0.7222 0.6561 0.2191
vn -0.0601 0.9982 0.0059
vn -0.9829 0.1566 0.0968
vn -0.8925 0.4424 0.0879
vn -0.7511 0.6561 0.0740
vn -0.5967 0.8003 0.0588
vn -0.4483 0.8928 0.0442
vn -0.3106 0.9500 0.0306
vn -0.1824 0.9831 0.0180
vn -0.4483 0.8928 -0.0442
vn -0.3106 0.9500 -0.0306
vn -0.1824 0.9831 -0.0180
vn -0.0601 0.9982 -0.0059
vn -0.9829 0.1566 -0.0968
vn -0.8925 0.4424 -0.0879
vn -0.7511 0.6561 -0.0740
vn -0.5967 0.8003 -0.0588
vn -0.9451 0.1566 -0.2867
vn -0.8582 0.4424 -0.2603
vn -0.7222 0.6561 -0.2191
vn -0.5738 0.8003 -0.1741
vn -0.4311 0.8928 -0.1308
vn -0.2987 0.9500 -0.0906
vn -0.1754 0.9831 -0.0532
vn -0.0578 0.9982 -0.0175
vn -0.3973 0.8928 -0.2123
vn -0.2753 0.9500 -0.1471
vn -0.1616 0.9831 -0.0864
vn -0.0533 0.9982 -0.0285
vn -0.8710 0.1566 -0.4656
vn -0.7909 0.4424 -0.4228
vn -0.6656 0.6561 -0.3558
vn -0.5288 0.8003 -0.2826
vn -0.6932 0.4424 -0.5689
vn -0.5834 0.6561 -0.4788
vn -0.4635 0.8003 -0.3804
vn -0.3482 0.8928 -0.2858
vn -0.2413 0.9500 -0.1980
vn -0.1417 0.9831 -0.1163
vn -0.0467 0.9982 -0.0383
vn -0.7635 0.1566 -0.6266
vn -0.1980 0.9500 -0.2413
vn -0.1163 0.9831 -0.1417
vn -0.0383 0.9982 -0.0467
vn -0.6266 0.1566 -0.7635
vn -0.5689 0.4424 -0.6932
vn -0.4788 0.6561 -0.5834
vn -0.3804 0.8003 -0.4635
vn -0.2858 0.8928 -0.3482
vn -0.4227 0.4424 -0.7909
vn -0.3558 0.6561 -0.6656
vn -0.2826 0.8003 -0.5288
vn -0.2123 0.8928 -0.3973
vn -0.1471 0.9500 -0.2753
vn -0.0864 0.9831 -0.1616
vn -0.0285 0.9982 -0.0533
vn -0.4656 0.1566 -0.8710
vn -0.0906 0.9500 -0.2987
vn -0.0532 0.9831 -0.1754
vn -0.0175 0.9982 -0.0578
vn -0.2867 0.1566 -0.9451
vn -0.2603 0.4424 -0.8582
vn -0.2191 0.6561 -0.7222
vn -0.1740 0.8003 -0.5738
vn -0.1308 0.8928 -0.4311
vn -0.0740 0.6561 -0.7511
vn -0.0588 0.8003 -0.5967
vn -0.0442 0.8928 -0.4483
vn -0.0306 0.9500 -0.3106
vn -0.0180 0.9831 -0.1824
vn -0.0059 0.9982 -0.0601
vn -0.0968 0.1566 -0.9829
vn -0.0879 0.4424 -0.8925
vn 0.0180 0.9831 -0.1824
vn 0.0059 0.9982 -0.0601
vn 0.0968 0.1566 -0.9829
vn 0.0879 0.4424 -0.8925
vn 0.0740 0.6561 -0.7511
vn 0.0588 0.8003 -0.5967
vn 0.0442 0.8928 -0.4483
vn 0.0306 0.9500 -0.3106
vn 0.1740 0.8003 -0.5738
vn 0.1308 0.8928 -0.4311
vn 0.0906 0.9500 -0.2987
vn 0.0532 0.9831 -0.1754
vn 0.0175 0.9982 -0.0578
vn 0.2867 0.1566 -0.9451
vn 0.2603 0.4424 -0.8582
vn 0.2191 0.6561 -0.7222
vn 0.0285 0.9982 -0.0533
vn 0.4656 0.1566 -0.8710
vn 0.4227 0.4424 -0.7909
vn 0.3558 0.6561 -0.6656
vn 0.2826 0.8003 -0.5288
vn 0.2123 0.8928 -0.3973
vn 0.1471 0.9500 -0.2753
vn 0.0864 0.9831 -0.1616
vn 0.3804 0.8003 -0.4635
vn 0.2858 0.8928 -0.3482
vn 0.1980 0.9500 -0.2413
vn 0.1163 0.9831 -0.1417
vn 0.0383 0.9982 -0.0467
vn 0.6266 0.1566 -0.7635
vn 0.5689 0.4424 -0.6932
vn 0.4788 0.6561 -0.5834
vn 0.0467 0.9982 -0.0383
vn 0.7635 0.1566 -0.6266
vn 0.6932 0.4424 -0.5689
vn 0.5834 0.6561 -0.4788
vn 0.4635 0.8003 -0.3804
vn 0.3482 0.8928 -0.2858
vn 0.2413 0.9500 -0.1980
vn 0.1417 0.9831 -0.1163
vn 0.3973 0.8928 -0.2123
vn 0.2753 0.9500 -0.1471
vn 0.1616 0.9831 -0.0864
vn 0.0533 0.9982 -0.0285
vn 0.8710 0.1566 -0.4656
vn 0.7909 0.4424 -0.4227
vn 0.6656 0.6561 -0.3558
vn 0.5288 0.8003 -0.2826
vn 0.9451 0.1566 -0.2867
vn 0.8582 0.4424 -0.2603
vn 0.7222 0.6561 -0.2191
vn 0.5738 0.8003 -0.1740
vn 0.4311 0.8928 -0.1308
vn 0.2987 0.9500 -0.0906
vn 0.1754 0.9831 -0.0532
vn 0.0578 0.9982 -0.0175
vn 0.4483 0.8928 -0.0442
vn 0.3106 0.9500 -0.0306
vn 0.1824 0.9831 -0.0180
vn 0.0601 0.9982 -0.0059
vn 0.9829 0.1566 -0.0968
vn 0.8925 0.4424 -0.0879
vn 0.7511 0.6561 -0.0740
vn 0.5967 0.8003 -0.0588
vn 0.8925 0.4424 0.0879
vn 0.7511 0.6561 0.0740
vn 0.5967 0.8003 0.0588
vn 0.4483 0.8928 0.0442
vn 0.3106 0.9500 0.0306
vn 0.1824 0.9831 0.0180
vn 0.0601 0.9982 0.0059
vn 0.9829 0.1566 0.0968
vn 0.2987 0.9500 0.0906
vn 0.1754 0.9831 0.0532
vn 0.0578 0.9982 0.0175
vn 0.9451 0.1566 0.2867
vn 0.8582 0.4424 0.2603
vn 0.7222 0.6561 0.2191
vn 0.5738 0.8003 0.1740
vn 0.4311 0.8928 0.1308
vn 0.6656 0.6561 0.3558
vn 0.5288 0.8003 0.2826
vn 0.3973 0.8928 0.2123
vn 0.2753 0.9500 0.1471
vn 0.1616 0.9831 0.0864
vn 0.0533 0.9982 0.0285
vn 0.8710 0.1566 0.4656
vn 0.7909 0.4424 0.4228
vn 0.1417 0.9831 0.1163
vn 0.0467 0.9982 0.0383
vn 0.7635 0.1566 0.6266
vn 0.6932 0.4424 0.5689
vn 0.5834 0.6561 0.4788
vn 0.4635 0.8003 0.3804
vn 0.3482 0.8928 0.2858
vn 0.2413 0.9500 0.1980
vn 0.4788 0.6561 0.5834
vn 0.3804 0.8003 0.4635
vn 0.2858 0.8928 0.3482
vn 0.1980 0.9500 0.2413
vn 0.1163 0.9831 0.1417
vn 0.0383 0.9982 0.0467
vn 0.6266 0.1566 0.7635
vn 0.5689 0.4424 0.6932
vn 0.0864 0.9831 0.1616
vn 0.0285 0.9982 0.0533
vn 0.4656 0.1566 0.8710
vn 0.4227 0.4424 0.7909
vn 0.3558 0.6561 0.6656
vn 0.2826 0.8003 0.5288
vn 0.2123 0.8928 0.3973
vn 0.1471 0.9500 0.2753
vn 0.1741 0.8003 0.5738
vn 0.1308 0.8928 0.4311
vn 0.0906 0.9500 0.2987
vn 0.0532 0.9831 0.1754
vn 0.0175 0.9982 0.0578
vn 0.2867 0.1566 0.9451
vn 0.2603 0.4424 0.8582
vn 0.2191 0.6561 0.7222
vn 0.0059 0.9982 0.0601
vn 0.0968 0.1566 0.9829
vn 0.0879 0.4424 0.8925
vn 0.0740 0.6561 0.7511
vn 0.0588 0.8003 0.5967
vn 0.0442 0.8928 0.4483
vn 0.0306 0.9500 0.3106
vn 0.0180 0.9831 0.1824
vn 0.0059 0.9982 -0.0602
vn 0.0176 0.9982 -0.0579
vn 0.0384 0.9982 -0.0467
vn 0.0467 0.9982 -0.0384
vn 0.0579 0.9982 -0.0176
vn 0.0602 0.9982 -0.0059
vn 0.0602 0.9982 0.0059
vn 0.0579 0.9982 0.0176
vn 0.0467 0.9982 0.0384
vn 0.0384 0.9982 0.0467
vn 0.0176 0.9982 0.0579
vn 0.0059 0.9982 0.0602
vn -0.0059 0.9982 0.0602
vn -0.0176 0.9982 0.0579
vn -0.0384 0.9982 0.0467
vn -0.0467 0.9982 0.0384
vn -0.0579 0.9982 0.0176
vn -0.0602 0.9982 0.0059
vn -0.0602 0.9982 -0.0059
vn -0.0579 0.9982 -0.0176
vn -0.0467 0.9982 -0.0384
vn -0.0384 0.9982 -0.0467
vn -0.0176 0.9982 -0.0579
vn -0.0059 0.9982 -0.0602
vt 0.750000 0.062500
vt 0.750000 0.125000
vt 0.718750 0.125000
vt 0.718750 0.062500
vt 0.734375 0.000000
vt 0.750000 0.437500
vt 0.750000 0.500000
vt 0.718750 0.500000
vt 0.718750 0.437500
vt 0.750000 0.375000
vt 0.718750 0.375000
vt 0.750000 0.312500
vt 0.718750 0.312500
vt 0.750000 0.250000
vt 0.718750 0.250000
vt 0.750000 0.187500
vt 0.718750 0.187500
vt 0.687500 0.187500
vt 0.687500 0.125000
vt 0.687500 0.062500
vt 0.703125 0.000000
vt 0.687500 0.500000
vt 0.687500 0.437500
vt 0.687500 0.375000
vt 0.687500 0.312500
vt 0.687500 0.250000
vt 0.656250 0.375000
vt 0.656250 0.312500
vt 0.656250 0.250000
vt 0.656250 0.187500
vt 0.656250 0.125000
vt 0.656250 0.062500
vt 0.671875 0.000000
vt 0.656250 0.500000
vt 0.656250 0.437500
vt 0.625000 0.125000
vt 0.625000 0.062500
vt 0.640625 0.000000
vt 0.625000 0.500000
vt 0.625000 0.437500
vt 0.625000 0.375000
vt 0.625000 0.312500
vt 0.625000 0.250000
vt 0.625000 0.187500
vt 0.593750 0.375000
vt 0.593750 0.312500
vt 0.593750 0.250000
vt 0.593750 0.187500
vt 0.593750 0.125000
vt 0.593750 0.062500
vt 0.609375 0.000000
vt 0.593750 0.500000
vt 0.593750 0.437500
vt 0.562500 0.125000
vt 0.562500 0.062500
vt 0.578125 0.000000
vt 0.562500 0.500000
vt 0.562500 0.437500
vt 0.562500 0.375000
vt 0.562500 0.312500
vt 0.562500 0.250000
vt 0.562500 0.187500
vt 0.531250 0.312500
vt 0.531250 0.250000
vt 0.531250 0.187500
vt 0.531250 0.125000
vt 0.531250 0.062500
vt 0.546875 0.000000
vt 0.531250 0.500000
vt 0.531250 0.437500
vt 0.531250 0.375000
vt 0.515625 0.000000
vt 0.500000 0.062500
vt 0.500000 0.500000
vt 0.500000 0.437500
vt 0.500000 0.375000
vt 0.500000 0.312500
vt 0.500000 0.250000
vt 0.500000 0.187500
vt 0.500000 0.125000
vt 0.468750 0.250000
vt 0.468750 0.187500
vt 0.468750 0.125000
vt 0.468750 0.062500
vt 0.484375 0.000000
vt 0.468750 0.500000
vt 0.468750 0.437500
vt 0.468750 0.375000
vt 0.468750 0.312500
vt 0.437500 0.500000
vt 0.437500 0.437500
vt 0.437500 0.375000
vt 0.437500 0.312500
vt 0.437500 0.250000
vt 0.437500 0.187500
vt 0.437500 0.125000
vt 0.437500 0.062500
vt 0.453125 0.000000
vt 0.406250 0.250000
vt 0.406250 0.187500
vt 0.406250 0.125000
vt 0.406250 0.062500
vt 0.421875 0.000000
vt 0.406250 0.500000
vt 0.406250 0.437500
vt 0.406250 0.375000
vt 0.406250 0.312500
vt 0.375000 0.437500
vt 0.375000 0.375000
vt 0.375000 0.312500
vt 0.375000 0.250000
vt 0.375000 0.187500
vt 0.375000 0.125000
vt 0.375000 0.062500
vt 0.390625 0.000000
vt 0.375000 0.500000
vt 0.343750 0.187500
vt 0.343750 0.125000
vt 0.343750 0.062500
vt 0.359375 0.000000
vt 0.343750 0.500000
vt 0.343750 0.437500
vt 0.343750 0.375000
vt 0.343750 0.312500
vt 0.343750 0.250000
vt 0.312500 0.437500
vt 0.312500 0.375000
vt 0.312500 0.312500
vt 0.312500 0.250000
vt 0.312500 0.187500
vt 0.312500 0.125000
vt 0.312500 0.062500
vt 0.328125 0.000000
vt 0.312500 0.500000
vt 0.281250 0.187500
vt 0.281250 0.125000
vt 0.281250 0.062500
vt 0.296875 0.000000
vt 0.281250 0.500000
vt 0.281250 0.437500
vt 0.281250 0.375000
vt 0.281250 0.312500
vt 0.281250 0.250000
vt 0.250000 0.375000
vt 0.250000 0.312500
vt 0.250000 0.250000
vt 0.250000 0.187500
vt 0.250000 0.125000
vt 0.250000 0.062500
vt 0.265625 0.000000
vt 0.250000 0.500000
vt 0.250000 0.437500
vt 0.218750 0.125000
vt 0.218750 0.062500
vt 0.234375 0.000000
vt 0.218750 0.500000
vt 0.218750 0.437500
vt 0.218750 0.375000
vt 0.218750 0.312500
vt 0.218750 0.250000
vt 0.218750 0.187500
vt 0.187500 0.312500
vt 0.187500 0.250000
vt 0.187500 0.187500
vt 0.187500 0.125000
vt 0.187500 0.062500
vt 0.203125 0.000000
vt 0.187500 0.500000
vt 0.187500 0.437500
vt 0.187500 0.375000
vt 0.171875 0.000000
vt 0.156250 0.062500
vt 0.156250 0.500000
vt 0.156250 0.437500
vt 0.156250 0.375000
vt 0.156250 0.312500
vt 0.156250 0.250000
vt 0.156250 0.187500
vt 0.156250 0.125000
vt 0.125000 0.312500
vt 0.125000 0.250000
vt 0.125000 0.187500
vt 0.125000 0.125000
vt 0.125000 0.062500
vt 0.140625 0.000000
vt 0.125000 0.500000
vt 0.125000 0.437500
vt 0.125000 0.375000
vt 0.109375 0.000000
vt 0.093750 0.062500
vt 0.093750 0.500000
vt 0.093750 0.437500
vt 0.093750 0.375000
vt 0.093750 0.312500
vt 0.093750 0.250000
vt 0.093750 0.187500
vt 0.093750 0.125000
vt 0.062500 0.250000
vt 0.062500 0.187500
vt 0.062500 0.125000
vt 0.062500 0.062500
vt 0.078125 0.000000
vt 0.062500 0.500000
vt 0.062500 0.437500
vt 0.062500 0.375000
vt 0.062500 0.312500
vt 0.031250 0.500000
vt 0.031250 0.437500
vt 0.031250 0.375000
vt 0.031250 0.312500
vt 0.031250 0.250000
vt 0.031250 0.187500
vt 0.031250 0.125000
vt 0.031250 0.062500
vt 0.046875 0.000000
vt 0.000000 0.250000
vt 0.000000 0.187500
vt 0.000000 0.125000
vt 0.000000 0.062500
vt 0.015625 0.000000
vt 0.000000 0.500000
vt 0.000000 0.437500
vt 0.000000 0.375000
vt 0.000000 0.312500
vt 1.000000 0.375000
vt 1.000000 0.437500
vt 0.968750 0.437500
vt 0.968750 0.375000
vt 1.000000 0.312500
vt 0.968750 0.312500
vt 1.000000 0.250000
vt 0.968750 0.250000
vt 1.000000 0.187500
vt 0.968750 0.187500
vt 1.000000 0.125000
vt 0.968750 0.125000
vt 1.000000 0.062500
vt 0.968750 0.062500
vt 0.984375 0.000000
vt 1.000000 0.500000
vt 0.968750 0.500000
vt 0.937500 0.187500
vt 0.937500 0.125000
vt 0.937500 0.062500
vt 0.953125 0.000000
vt 0.937500 0.500000
vt 0.937500 0.437500
vt 0.937500 0.375000
vt 0.937500 0.312500
vt 0.937500 0.250000
vt 0.906250 0.375000
vt 0.906250 0.312500
vt 0.906250 0.250000
vt 0.906250 0.187500
vt 0.906250 0.125000
vt 0.906250 0.062500
vt 0.921875 0.000000
vt 0.906250 0.500000
vt 0.906250 0.437500
vt 0.875000 0.125000
vt 0.875000 0.062500
vt 0.890625 0.000000
vt 0.875000 0.500000
vt 0.875000 0.437500
vt 0.875000 0.375000
vt 0.875000 0.312500
vt 0.875000 0.250000
vt 0.875000 0.187500
vt 0.843750 0.375000
vt 0.843750 0.312500
vt 0.843750 0.250000
vt 0.843750 0.187500
vt 0.843750 0.125000
vt 0.843750 0.062500
vt 0.859375 0.000000
vt 0.843750 0.500000
vt 0.843750 0.437500
vt 0.812500 0.125000
vt 0.812500 0.062500
vt 0.828125 0.000000
vt 0.812500 0.500000
vt 0.812500 0.437500
vt 0.812500 0.375000
vt 0.812500 0.312500
vt 0.812500 0.250000
vt 0.812500 0.187500
vt 0.781250 0.312500
vt 0.781250 0.250000
vt 0.781250 0.187500
vt 0.781250 0.125000
vt 0.781250 0.062500
vt 0.796875 0.000000
vt 0.781250 0.500000
vt 0.781250 0.437500
vt 0.781250 0.375000
vt 0.765625 0.000000
s 0
f 257/1/1 256/2/1 10/3/1 11/4/1
f 164/5/2 257/1/2 11/4/2
f 2/6/3 1/7/3 4/8/3 5/9/3
f 253/10/4 2/6/4 5/9/4 6/11/4
f 3/12/5 253/10/5 6/11/5 7/13/5
f 254/14/6 3/12/6 7/13/6 8/15/6
f 255/16/7 254/14/7 8/15/7 9/17/7
f 256/2/8 255/16/8 9/17/8 10/3/8
f 10/3/9 9/17/9 17/18/9 18/19/9
f 11/4/10 10/3/10 18/19/10 19/20/10
f 164/21/11 11/4/11 19/20/11
f 5/9/12 4/8/12 12/22/12 13/23/12
f 6/11/13 5/9/13 13/23/13 14/24/13
f 7/13/14 6/11/14 14/24/14 15/25/14
f 8/15/15 7/13/15 15/25/15 16/26/15
f 9/17/16 8/15/16 16/26/16 17/18/16
f 15/25/17 14/24/17 22/27/17 23/28/17
f 16/26/18 15/25/18 23/28/18 24/29/18
f 17/18/19 16/26/19 24/29/19 25/30/19
f 18/19/20 17/18/20 25/30/20 26/31/20
f 19/20/21 18/19/21 26/31/21 27/32/21
f 164/33/22 19/20/22 27/32/22
f 13/23/23 12/22/23 20/34/23 21/35/23
f 14/24/24 13/23/24 21/35/24 22/27/24
f 27/32/25 26/31/25 34/36/25 35/37/25
f 164/38/26 27/32/26 35/37/26
f 21/35/27 20/34/27 28/39/27 29/40/27
f 22/27/28 21/35/28 29/40/28 30/41/28
f 23/28/29 22/27/29 30/41/29 31/42/29
f 24/29/30 23/28/30 31/42/30 32/43/30
f 25/30/31 24/29/31 32/43/31 33/44/31
f 26/31/32 25/30/32 33/44/32 34/36/32
f 31/42/33 30/41/33 38/45/33 39/46/33
f 32/43/34 31/42/34 39/46/34 40/47/34
f 33/44/35 32/43/35 40/47/35 41/48/35
f 34/36/36 33/44/36 41/48/36 42/49/36
f 35/37/37 34/36/37 42/49/37 43/50/37
f 164/51/38 35/37/38 43/50/38
f 29/40/39 28/39/39 36/52/39 37/53/39
f 30/41/40 29/40/40 37/53/40 38/45/40
f 43/50/41 42/49/41 50/54/41 51/55/41
f 164/56/42 43/50/42 51/55/42
f 37/53/43 36/52/43 44/57/43 45/58/43
f 38/45/44 37/53/44 45/58/44 46/59/44
f 39/46/45 38/45/45 46/59/45 47/60/45
f 40/47/46 39/46/46 47/60/46 48/61/46
f 41/48/47 40/47/47 48/61/47 49/62/47
f 42/49/48 41/48/48 49/62/48 50/54/48
f 48/61/49 47/60/49 55/63/49 56/64/49
f 49/62/50 48/61/50 56/64/50 57/65/50
f 50/54/51 49/62/51 57/65/51 58/66/51
f 51/55/52 50/54/52 58/66/52 59/67/52
f 164/68/53 51/55/53 59/67/53
f 45/58/54 44/57/54 52/69/54 53/70/54
f 46/59/55 45/58/55 53/70/55 54/71/55
f 47/60/56 46/59/56 54/71/56 55/63/56
f 164/72/57 59/67/57 67/73/57
f 53/70/58 52/69/58 60/74/58 61/75/58
f 54/71/59 53/70/59 61/75/59 62/76/59
f 55/63/60 54/71/60 62/76/60 63/77/60
f 56/64/61 55/63/61 63/77/61 64/78/61
f 57/65/62 56/64/62 64/78/62 65/79/62
f 58/66/63 57/65/63 65/79/63 66/80/63
f 59/67/64 58/66/64 66/80/64 67/73/64
f 65/79/65 64/78/65 72/81/65 73/82/65
f 66/80/66 65/79/66 73/82/66 74/83/66
f 67/73/67 66/80/67 74/83/67 75/84/67
f 164/85/68 67/73/68 75/84/68
f 61/75/69 60/74/69 68/86/69 69/87/69
f 62/76/70 61/75/70 69/87/70 70/88/70
f 63/77/71 62/76/71 70/88/71 71/89/71
f 64/78/72 63/77/72 71/89/72 72/81/72
f 69/87/73 68/86/73 76/90/73 77/91/73
f 70/88/74 69/87/74 77/91/74 78/92/74
f 71/89/75 70/88/75 78/92/75 79/93/75
f 72/81/76 71/89/76 79/93/76 80/94/76
f 73/82/77 72/81/77 80/94/77 81/95/77
f 74/83/78 73/82/78 81/95/78 82/96/78
f 75/84/79 74/83/79 82/96/79 83/97/79
f 164/98/80 75/84/80 83/97/80
f 81/95/81 80/94/81 88/99/81 89/100/81
f 82/96/82 81/95/82 89/100/82 90/101/82
f 83/97/83 82/96/83 90/101/83 91/102/83
f 164/103/84 83/97/84 91/102/84
f 77/91/85 76/90/85 84/104/85 85/105/85
f 78/92/86 77/91/86 85/105/86 86/106/86
f 79/93/87 78/92/87 86/106/87 87/107/87
f 80/94/88 79/93/88 87/107/88 88/99/88
f 86/106/89 85/105/89 93/108/89 94/109/89
f 87/107/90 86/106/90 94/109/90 95/110/90
f 88/99/91 87/107/91 95/110/91 96/111/91
f 89/100/92 88/99/92 96/111/92 97/112/92
f 90/101/93 89/100/93 97/112/93 98/113/93
f 91/102/94 90/101/94 98/113/94 99/114/94
f 164/115/95 91/102/95 99/114/95
f 85/105/96 84/104/96 92/116/96 93/108/96
f 98/113/97 97/112/97 105/117/97 106/118/97
f 99/114/98 98/113/98 106/118/98 107/119/98
f 164/120/99 99/114/99 107/119/99
f 93/108/100 92/116/100 100/121/100 101/122/100
f 94/109/101 93/108/101 101/122/101 102/123/101
f 95/110/102 94/109/102 102/123/102 103/124/102
f 96/111/103 95/110/103 103/124/103 104/125/103
f 97/112/104 96/111/104 104/125/104 105/117/104
f 102/123/105 101/122/105 109/126/105 110/127/105
f 103/124/106 102/123/106 110/127/106 111/128/106
f 104/125/107 103/124/107 111/128/107 112/129/107
f 105/117/108 104/125/108 112/129/108 113/130/108
f 106/118/109 105/117/109 113/130/109 114/131/109
f 107/119/110 106/118/110 114/131/110 115/132/110
f 164/133/111 107/119/111 115/132/111
f 101/122/112 100/121/112 108/134/112 109/126/112
f 114/131/113 113/130/113 121/135/113 122/136/113
f 115/132/114 114/131/114 122/136/114 123/137/114
f 164/138/115 115/132/115 123/137/115
f 109/126/116 108/134/116 116/139/116 117/140/116
f 110/127/117 109/126/117 117/140/117 118/141/117
f 111/128/118 110/127/118 118/141/118 119/142/118
f 112/129/119 111/128/119 119/142/119 120/143/119
f 113/130/120 112/129/120 120/143/120 121/135/120
f 119/142/121 118/141/121 126/144/121 127/145/121
f 120/143/122 119/142/122 127/145/122 128/146/122
f 121/135/123 120/143/123 128/146/123 129/147/123
f 122/136/124 121/135/124 129/147/124 130/148/124
f 123/137/125 122/136/125 130/148/125 131/149/125
f 164/150/126 123/137/126 131/149/126
f 117/140/127 116/139/127 124/151/127 125/152/127
f 118/141/128 117/140/128 125/152/128 126/144/128
f 131/149/129 130/148/129 138/153/129 139/154/129
f 164/155/130 131/149/130 139/154/130
f 125/152/131 124/151/131 132/156/131 133/157/131
f 126/144/132 125/152/132 133/157/132 134/158/132
f 127/145/133 126/144/133 134/158/133 135/159/133
f 128/146/134 127/145/134 135/159/134 136/160/134
f 129/147/135 128/146/135 136/160/135 137/161/135
f 130/148/136 129/147/136 137/161/136 138/153/136
f 136/160/137 135/159/137 143/162/137 144/163/137
f 137/161/138 136/160/138 144/163/138 145/164/138
f 138/153/139 137/161/139 145/164/139 146/165/139
f 139/154/140 138/153/140 146/165/140 147/166/140
f 164/167/141 139/154/141 147/166/141
f 133/157/142 132/156/142 140/168/142 141/169/142
f 134/158/143 133/157/143 141/169/143 142/170/143
f 135/159/144 134/158/144 142/170/144 143/162/144
f 164/171/145 147/166/145 155/172/145
f 141/169/146 140/168/146 148/173/146 149/174/146
f 142/170/147 141/169/147 149/174/147 150/175/147
f 143/162/148 142/170/148 150/175/148 151/176/148
f 144/163/149 143/162/149 151/176/149 152/177/149
f 145/164/150 144/163/150 152/177/150 153/178/150
f 146/165/151 145/164/151 153/178/151 154/179/151
f 147/166/152 146/165/152 154/179/152 155/172/152
f 152/177/153 151/176/153 159/180/153 160/181/153
f 153/178/154 152/177/154 160/181/154 161/182/154
f 154/179/155 153/178/155 161/182/155 162/183/155
f 155/172/156 154/179/156 162/183/156 163/184/156
f 164/185/157 155/172/157 163/184/157
f 149/174/158 148/173/158 156/186/158 157/187/158
f 150/175/159 149/174/159 157/187/159 158/188/159
f 151/176/160 150/175/160 158/188/160 159/180/160
f 164/189/161 163/184/161 172/190/161
f 157/187/162 156/186/162 165/191/162 166/192/162
f 158/188/163 157/187/163 166/192/163 167/193/163
f 159/180/164 158/188/164 167/193/164 168/194/164
f 160/181/165 159/180/165 168/194/165 169/195/165
f 161/182/166 160/181/166 169/195/166 170/196/166
f 162/183/167 161/182/167 170/196/167 171/197/167
f 163/184/168 162/183/168 171/197/168 172/190/168
f 170/196/169 169/195/169 177/198/169 178/199/169
f 171/197/170 170/196/170 178/199/170 179/200/170
f 172/190/171 171/197/171 179/200/171 180/201/171
f 164/202/172 172/190/172 180/201/172
f 166/192/173 165/191/173 173/203/173 174/204/173
f 167/193/174 166/192/174 174/204/174 175/205/174
f 168/194/175 167/193/175 175/205/175 176/206/175
f 169/195/176 168/194/176 176/206/176 177/198/176
f 174/204/177 173/203/177 181/207/177 182/208/177
f 175/205/178 174/204/178 182/208/178 183/209/178
f 176/206/179 175/205/179 183/209/179 184/210/179
f 177/198/180 176/206/180 184/210/180 185/211/180
f 178/199/181 177/198/181 185/211/181 186/212/181
f 179/200/182 178/199/182 186/212/182 187/213/182
f 180/201/183 179/200/183 187/213/183 188/214/183
f 164/215/184 180/201/184 188/214/184
f 186/212/185 185/211/185 193/216/185 194/217/185
f 187/213/186 186/212/186 194/217/186 195/218/186
f 188/214/187 187/213/187 195/218/187 196/219/187
f 164/220/188 188/214/188 196/219/188
f 182/208/189 181/207/189 189/221/189 190/222/189
f 183/209/190 182/208/190 190/222/190 191/223/190
f 184/210/191 183/209/191 191/223/191 192/224/191
f 185/211/192 184/210/192 192/224/192 193/216/192
f 191/225/193 190/226/193 198/227/193 199/228/193
f 192/229/194 191/225/194 199/228/194 200/230/194
f 193/231/195 192/229/195 200/230/195 201/232/195
f 194/233/196 193/231/196 201/232/196 202/234/196
f 195/235/197 194/233/197 202/234/197 203/236/197
f 196/237/198 195/235/198 203/236/198 204/238/198
f 164/239/199 196/237/199 204/238/199
f 190/226/200 189/240/200 197/241/200 198/227/200
f 203/236/201 202/234/201 210/242/201 211/243/201
f 204/238/202 203/236/202 211/243/202 212/244/202
f 164/245/203 204/238/203 212/244/203
f 198/227/204 197/241/204 205/246/204 206/247/204
f 199/228/205 198/227/205 206/247/205 207/248/205
f 200/230/206 199/228/206 207/248/206 208/249/206
f 201/232/207 200/230/207 208/249/207 209/250/207
f 202/234/208 201/232/208 209/250/208 210/242/208
f 208/249/209 207/248/209 215/251/209 216/252/209
f 209/250/210 208/249/210 216/252/210 217/253/210
f 210/242/211 209/250/211 217/253/211 218/254/211
f 211/243/212 210/242/212 218/254/212 219/255/212
f 212/244/213 211/243/213 219/255/213 220/256/213
f 164/257/214 212/244/214 220/256/214
f 206/247/215 205/246/215 213/258/215 214/259/215
f 207/248/216 206/247/216 214/259/216 215/251/216
f 220/256/217 219/255/217 227/260/217 228/261/217
f 164/262/218 220/256/218 228/261/218
f 214/259/219 213/258/219 221/263/219 222/264/219
f 215/251/220 214/259/220 222/264/220 223/265/220
f 216/252/221 215/251/221 223/265/221 224/266/221
f 217/253/222 216/252/222 224/266/222 225/267/222
f 218/254/223 217/253/223 225/267/223 226/268/223
f 219/255/224 218/254/224 226/268/224 227/260/224
f 224/266/225 223/265/225 231/269/225 232/270/225
f 225/267/226 224/266/226 232/270/226 233/271/226
f 226/268/227 225/267/227 233/271/227 234/272/227
f 227/260/228 226/268/228 234/272/228 235/273/228
f 228/261/229 227/260/229 235/273/229 236/274/229
f 164/275/230 228/261/230 236/274/230
f 222/264/231 221/263/231 229/276/231 230/277/231
f 223/265/232 222/264/232 230/277/232 231/269/232
f 236/274/233 235/273/233 243/278/233 244/279/233
f 164/280/234 236/274/234 244/279/234
f 230/277/235 229/276/235 237/281/235 238/282/235
f 231/269/236 230/277/236 238/282/236 239/283/236
f 232/270/237 231/269/237 239/283/237 240/284/237
f 233/271/238 232/270/238 240/284/238 241/285/238
f 234/272/239 233/271/239 241/285/239 242/286/239
f 235/273/240 234/272/240 242/286/240 243/278/240
f 241/285/241 240/284/241 248/287/241 249/288/241
f 242/286/242 241/285/242 249/288/242 250/289/242
f 243/278/243 242/286/243 250/289/243 251/290/243
f 244/279/244 243/278/244 251/290/244 252/291/244
f 164/292/245 244/279/245 252/291/245
f 238/282/246 237/281/246 245/293/246 246/294/246
f 239/283/247 238/282/247 246/294/247 247/295/247
f 240/284/248 239/283/248 247/295/248 248/287/248
f 164/296/249 252/291/249 257/1/249
f 246/294/250 245/293/250 1/7/250 2/6/250
f 247/295/251 246/294/251 2/6/251 253/10/251
f 248/287/252 247/295/252 253/10/252 3/12/252
f 249/288/253 248/287/253 3/12/253 254/14/253
f 250/289/254 249/288/254 254/14/254 255/16/254
f 251/290/255 250/289/255 255/16/255 256/2/255
f 252/291/256 251/290/256 256/2/256 257/1/256
f 514/1/257 268/4/257 267/3/257 513/2/257
f 421/5/258 268/4/258 514/1/258
f 259/6/259 262/9/259 261/8/259 258/7/259
f 510/10/260 263/11/260 262/9/260 259/6/260
f 260/12/261 264/13/261 263/11/261 510/10/261
f 511/14/262 265/15/262 264/13/262 260/12/262
f 512/16/263 266/17/263 265/15/263 511/14/263
f 513/2/264 267/3/264 266/17/264 512/16/264
f 267/3/265 275/19/265 274/18/265 266/17/265
f 268/4/266 276/20/266 275/19/266 267/3/266
f 421/21/267 276/20/267 268/4/267
f 262/9/268 270/23/268 269/22/268 261/8/268
f 263/11/269 271/24/269 270/23/269 262/9/269
f 264/13/270 272/25/270 271/24/270 263/11/270
f 265/15/271 273/26/271 272/25/271 264/13/271
f 266/17/272 274/18/272 273/26/272 265/15/272
f 272/25/273 280/28/273 279/27/273 271/24/273
f 273/26/274 281/29/274 280/28/274 272/25/274
f 274/18/275 282/30/275 281/29/275 273/26/275
f 275/19/276 283/31/276 282/30/276 274/18/276
f 276/20/277 284/32/277 283/31/277 275/19/277
f 421/33/278 284/32/278 276/20/278
f 270/23/279 278/35/279 277/34/279 269/22/279
f 271/24/280 279/27/280 278/35/280 270/23/280
f 284/32/281 292/37/281 291/36/281 283/31/281
f 421/38/282 292/37/282 284/32/282
f 278/35/283 286/40/283 285/39/283 277/34/283
f 279/27/284 287/41/284 286/40/284 278/35/284
f 280/28/285 288/42/285 287/41/285 279/27/285
f 281/29/286 289/43/286 288/42/286 280/28/286
f 282/30/287 290/44/287 289/43/287 281/29/287
f 283/31/288 291/36/288 290/44/288 282/30/288
f 288/42/289 296/46/289 295/45/289 287/41/289
f 289/43/290 297/47/290 296/46/290 288/42/290
f 290/44/291 298/48/291 297/47/291 289/43/291
f 291/36/292 299/49/292 298/48/292 290/44/292
f 292/37/293 300/50/293 299/49/293 291/36/293
f 421/51/294 300/50/294 292/37/294
f 286/40/295 294/53/295 293/52/295 285/39/295
f 287/41/296 295/45/296 294/53/296 286/40/296
f 300/50/297 308/55/297 307/54/297 299/49/297
f 421/56/298 308/55/298 300/50/298
f 294/53/299 302/58/299 301/57/299 293/52/299
f 295/45/300 303/59/300 302/58/300 294/53/300
f 296/46/301 304/60/301 303/59/301 295/45/301
f 297/47/302 305/61/302 304/60/302 296/46/302
f 298/48/303 306/62/303 305/61/303 297/47/303
f 299/49/304 307/54/304 306/62/304 298/48/304
f 305/61/305 313/64/305 312/63/305 304/60/305
f 306/62/306 314/65/306 313/64/306 305/61/306
f 307/54/307 315/66/307 314/65/307 306/62/307
f 308/55/308 316/67/308 315/66/308 307/54/308
f 421/68/309 316/67/309 308/55/309
f 302/58/310 310/70/310 309/69/310 301/57/310
f 303/59/311 311/71/311 310/70/311 302/58/311
f 304/60/312 312/63/312 311/71/312 303/59/312
f 421/72/313 324/73/313 316/67/313
f 310/70/314 318/75/314 317/74/314 309/69/314
f 311/71/315 319/76/315 318/75/315 310/70/315
f 312/63/316 320/77/316 319/76/316 311/71/316
f 313/64/317 321/78/317 320/77/317 312/63/317
f 314/65/318 322/79/318 321/78/318 313/64/318
f 315/66/319 323/80/319 322/79/319 314/65/319
f 316/67/320 324/73/320 323/80/320 315/66/320
f 322/79/321 330/82/321 329/81/321 321/78/321
f 323/80/322 331/83/322 330/82/322 322/79/322
f 324/73/323 332/84/323 331/83/323 323/80/323
f 421/85/324 332/84/324 324/73/324
f 318/75/325 326/87/325 325/86/325 317/74/325
f 319/76/326 327/88/326 326/87/326 318/75/326
f 320/77/327 328/89/327 327/88/327 319/76/327
f 321/78/328 329/81/328 328/89/328 320/77/328
f 326/87/329 334/91/329 333/90/329 325/86/329
f 327/88/330 335/92/330 334/91/330 326/87/330
f 328/89/331 336/93/331 335/92/331 327/88/331
f 329/81/332 337/94/332 336/93/332 328/89/332
f 330/82/333 338/95/333 337/94/333 329/81/333
f 331/83/334 339/96/334 338/95/334 330/82/334
f 332/84/335 340/97/335 339/96/335 331/83/335
f 421/98/336 340/97/336 332/84/336
f 338/95/337 346/100/337 345/99/337 337/94/337
f 339/96/338 347/101/338 346/100/338 338/95/338
f 340/97/339 348/102/339 347/101/339 339/96/339
f 421/103/340 348/102/340 340/97/340
f 334/91/341 342/105/341 341/104/341 333/90/341
f 335/92/342 343/106/342 342/105/342 334/91/342
f 336/93/343 344/107/343 343/106/343 335/92/343
f 337/94/344 345/99/344 344/107/344 336/93/344
f 343/106/345 351/109/345 350/108/345 342/105/345
f 344/107/346 352/110/346 351/109/346 343/106/346
f 345/99/347 353/111/347 352/110/347 344/107/347
f 346/100/348 354/112/348 353/111/348 345/99/348
f 347/101/349 355/113/349 354/112/349 346/100/349
f 348/102/350 356/114/350 355/113/350 347/101/350
f 421/115/351 356/114/351 348/102/351
f 342/105/352 350/108/352 349/116/352 341/104/352
f 355/113/353 363/118/353 362/117/353 354/112/353
f 356/114/354 364/119/354 363/118/354 355/113/354
f 421/120/355 364/119/355 356/114/355
f 350/108/356 358/122/356 357/121/356 349/116/356
f 351/109/357 359/123/357 358/122/357 350/108/357
f 352/110/358 360/124/358 359/123/358 351/109/358
f 353/111/359 361/125/359 360/124/359 352/110/359
f 354/112/360 362/117/360 361/125/360 353/111/360
f 359/123/361 367/127/361 366/126/361 358/122/361
f 360/124/362 368/128/362 367/127/362 359/123/362
f 361/125/363 369/129/363 368/128/363 360/124/363
f 362/117/364 370/130/364 369/129/364 361/125/364
f 363/118/365 371/131/365 370/130/365 362/117/365
f 364/119/366 372/132/366 371/131/366 363/118/366
f 421/133/367 372/132/367 364/119/367
f 358/122/368 366/126/368 365/134/368 357/121/368
f 371/131/369 379/136/369 378/135/369 370/130/369
f 372/132/370 380/137/370 379/136/370 371/131/370
f 421/138/371 380/137/371 372/132/371
f 366/126/372 374/140/372 373/139/372 365/134/372
f 367/127/373 375/141/373 374/140/373 366/126/373
f 368/128/374 376/142/374 375/141/374 367/127/374
f 369/129/375 377/143/375 376/142/375 368/128/375
f 370/130/376 378/135/376 377/143/376 369/129/376
f 376/142/377 384/145/377 383/144/377 375/141/377
f 377/143/378 385/146/378 384/145/378 376/142/378
f 378/135/379 386/147/379 385/146/379 377/143/379
f 379/136/380 387/148/380 386/147/380 378/135/380
f 380/137/381 388/149/381 387/148/381 379/136/381
f 421/150/382 388/149/382 380/137/382
f 374/140/383 382/152/383 381/151/383 373/139/383
f 375/141/384 383/144/384 382/152/384 374/140/384
f 388/149/385 396/154/385 395/153/385 387/148/385
f 421/155/386 396/154/386 388/149/386
f 382/152/387 390/157/387 389/156/387 381/151/387
f 383/144/388 391/158/388 390/157/388 382/152/388
f 384/145/389 392/159/389 391/158/389 383/144/389
f 385/146/390 393/160/390 392/159/390 384/145/390
f 386/147/391 394/161/391 393/160/391 385/146/391
f 387/148/392 395/153/392 394/161/392 386/147/392
f 393/160/393 401/163/393 400/162/393 392/159/393
f 394/161/394 402/164/394 401/163/394 393/160/394
f 395/153/395 403/165/395 402/164/395 394/161/395
f 396/154/396 404/166/396 403/165/396 395/153/396
f 421/167/397 404/166/397 396/154/397
f 390/157/398 398/169/398 397/168/398 389/156/398
f 391/158/399 399/170/399 398/169/399 390/157/399
f 392/159/400 400/162/400 399/170/400 391/158/400
f 421/171/401 412/172/401 404/166/401
f 398/169/402 406/174/402 405/173/402 397/168/402
f 399/170/403 407/175/403 406/174/403 398/169/403
f 400/162/404 408/176/404 407/175/404 399/170/404
f 401/163/405 409/177/405 408/176/405 400/162/405
f 402/164/406 410/178/406 409/177/406 401/163/406
f 403/165/407 411/179/407 410/178/407 402/164/407
f 404/166/408 412/172/408 411/179/408 403/165/408
f 409/177/409 417/181/409 416/180/409 408/176/409
f 410/178/410 418/182/410 417/181/410 409/177/410
f 411/179/411 419/183/411 418/182/411 410/178/411
f 412/172/412 420/184/412 419/183/412 411/179/412
f 421/185/413 420/184/413 412/172/413
f 406/174/414 414/187/414 413/186/414 405/173/414
f 407/175/415 415/188/415 414/187/415 406/174/415
f 408/176/416 416/180/416 415/188/416 407/175/416
f 421/189/417 429/190/417 420/184/417
f 414/187/418 423/192/418 422/191/418 413/186/418
f 415/188/419 424/193/419 423/192/419 414/187/419
f 416/180/420 425/194/420 424/193/420 415/188/420
f 417/181/421 426/195/421 425/194/421 416/180/421
f 418/182/422 427/196/422 426/195/422 417/181/422
f 419/183/423 428/197/423 427/196/423 418/182/423
f 420/184/424 429/190/424 428/197/424 419/183/424
f 427/196/425 435/199/425 434/198/425 426/195/425
f 428/197/426 436/200/426 435/199/426 427/196/426
f 429/190/427 437/201/427 436/200/427 428/197/427
f 421/202/428 437/201/428 429/190/428
f 423/192/429 431/204/429 430/203/429 422/191/429
f 424/193/430 432/205/430 431/204/430 423/192/430
f 425/194/431 433/206/431 432/205/431 424/193/431
f 426/195/432 434/198/432 433/206/432 425/194/432
f 431/204/433 439/208/433 438/207/433 430/203/433
f 432/205/434 440/209/434 439/208/434 431/204/434
f 433/206/435 441/210/435 440/209/435 432/205/435
f 434/198/436 442/211/436 441/210/436 433/206/436
f 435/199/437 443/212/437 442/211/437 434/198/437
f 436/200/438 444/213/438 443/212/438 435/199/438
f 437/201/439 445/214/439 444/213/439 436/200/439
f 421/215/440 445/214/440 437/201/440
f 443/212/441 451/217/441 450/216/441 442/211/441
f 444/213/442 452/218/442 451/217/442 443/212/442
f 445/214/443 453/219/443 452/218/443 444/213/443
f 421/220/444 453/219/444 445/214/444
f 439/208/445 447/222/445 446/221/445 438/207/445
f 440/209/446 448/223/446 447/222/446 439/208/446
f 441/210/447 449/224/447 448/223/447 440/209/447
f 442/211/448 450/216/448 449/224/448 441/210/448
f 448/225/449 456/228/449 455/227/449 447/226/449
f 449/229/450 457/230/450 456/228/450 448/225/450
f 450/231/451 458/232/451 457/230/451 449/229/451
f 451/233/452 459/234/452 458/232/452 450/231/452
f 452/235/453 460/236/453 459/234/453 451/233/453
f 453/237/454 461/238/454 460/236/454 452/235/454
f 421/239/455 461/238/455 453/237/455
f 447/226/456 455/227/456 454/241/456 446/240/456
f 460/236/457 468/243/457 467/242/457 459/234/457
f 461/238/458 469/244/458 468/243/458 460/236/458
f 421/245/459 469/244/459 461/238/459
f 455/227/460 463/247/460 462/246/460 454/241/460
f 456/228/461 464/248/461 463/247/461 455/227/461
f 457/230/462 465/249/462 464/248/462 456/228/462
f 458/232/463 466/250/463 465/249/463 457/230/463
f 459/234/464 467/242/464 466/250/464 458/232/464
f 465/249/465 473/252/465 472/251/465 464/248/465
f 466/250/466 474/253/466 473/252/466 465/249/466
f 467/242/467 475/254/467 474/253/467 466/250/467
f 468/243/468 476/255/468 475/254/468 467/242/468
f 469/244/469 477/256/469 476/255/469 468/243/469
f 421/257/470 477/256/470 469/244/470
f 463/247/471 471/259/471 470/258/471 462/246/471
f 464/248/472 472/251/472 471/259/472 463/247/472
f 477/256/473 485/261/473 484/260/473 476/255/473
f 421/262/474 485/261/474 477/256/474
f 471/259/475 479/264/475 478/263/475 470/258/475
f 472/251/476 480/265/476 479/264/476 471/259/476
f 473/252/477 481/266/477 480/265/477 472/251/477
f 474/253/478 482/267/478 481/266/478 473/252/478
f 475/254/479 483/268/479 482/267/479 474/253/479
f 476/255/480 484/260/480 483/268/480 475/254/480
f 481/266/481 489/270/481 488/269/481 480/265/481
f 482/267/482 490/271/482 489/270/482 481/266/482
f 483/268/483 491/272/483 490/271/483 482/267/483
f 484/260/484 492/273/484 491/272/484 483/268/484
f 485/261/485 493/274/485 492/273/485 484/260/485
f 421/275/486 493/274/486 485/261/486
f 479/264/487 487/277/487 486/276/487 478/263/487
f 480/265/488 488/269/488 487/277/488 479/264/488
f 493/274/489 501/279/489 500/278/489 492/273/489
f 421/280/490 501/279/490 493/274/490
f 487/277/491 495/282/491 494/281/491 486/276/491
f 488/269/492 496/283/492 495/282/492 487/277/492
f 489/270/493 497/284/493 496/283/493 488/269/493
f 490/271/494 498/285/494 497/284/494 489/270/494
f 491/272/495 499/286/495 498/285/495 490/271/495
f 492/273/496 500/278/496 499/286/496 491/272/496
f 498/285/497 506/288/497 505/287/497 497/284/497
f 499/286/498 507/289/498 506/288/498 498/285/498
f 500/278/499 508/290/499 507/289/499 499/286/499
f 501/279/500 509/291/500 508/290/500 500/278/500
f 421/292/501 509/291/501 501/279/501
f 495/282/502 503/294/502 502/293/502 494/281/502
f 496/283/503 504/295/503 503/294/503 495/282/503
f 497/284/504 505/287/504 504/295/504 496/283/504
f 421/296/505 514/1/505 509/291/505
f 503/294/506 259/6/506 258/7/506 502/293/506
f 504/295/507 510/10/507 259/6/507 503/294/507
f 505/287/508 260/12/508 510/10/508 504/295/508
f 506/288/509 511/14/509 260/12/509 505/287/509
f 507/289/510 512/16/510 511/14/510 506/288/510
f 508/290/511 513/2/511 512/16/511 507/289/511
f 509/291/512 514/1/512 513/2/512 508/290/512
f 4/8/513 1/7/513 258/7/513 261/8/513
f 12/22/514 4/8/514 261/8/514 269/22/514
f 20/34/401 12/22/401 269/22/401 277/34/401
f 28/39/515 20/34/515 277/34/515 285/39/515
f 36/52/516 28/39/516 285/39/516 293/52/516
f 44/57/428 36/52/428 293/52/428 301/57/428
f 52/69/517 44/57/517 301/57/517 309/69/517
f 60/74/518 52/69/518 309/69/518 317/74/518
f 68/86/519 60/74/519 317/74/519 325/86/519
f 76/90/520 68/86/520 325/86/520 333/90/520
f 84/104/470 76/90/470 333/90/470 341/104/470
f 92/116/521 84/104/521 341/104/521 349/116/521
f 100/121/522 92/116/522 349/116/522 357/121/522
f 108/134/490 100/121/490 357/121/490 365/134/490
f 116/139/523 108/134/523 365/134/523 373/139/523
f 124/151/524 116/139/524 373/139/524 381/151/524
f 132/156/525 124/151/525 381/151/525 389/156/525
f 140/168/526 132/156/526 389/156/526 397/168/526
f 148/173/278 140/168/278 397/168/278 405/173/278
f 156/186/527 148/173/527 405/173/527 413/186/527
f 165/191/528 156/186/528 413/186/528 422/191/528
f 173/203/298 165/191/298 422/191/298 430/203/298
f 181/207/529 173/203/529 430/203/529 438/207/529
f 189/221/530 181/207/530 438/207/530 446/221/530
f 197/241/531 189/240/531 446/240/531 454/241/531
f 205/246/532 197/241/532 454/241/532 462/246/532
f 213/258/340 205/246/340 462/246/340 470/258/340
f 221/263/533 213/258/533 470/258/533 478/263/533
f 229/276/534 221/263/534 478/263/534 486/276/534
f 237/281/367 229/276/367 486/276/367 494/281/367
f 245/293/535 237/281/535 494/281/535 502/293/535
f 1/7/536 245/293/536 502/293/536 258/7/536
