# Blender 4.0.2
# www.blender.org
mtllib open_cube.mtl
o cube
v -2.287222 -1.403192 -2.287226
v -2.287222 3.171256 -2.287226
v 2.287226 3.171256 -2.287222
v 2.287226 -1.403192 -2.287222
v -2.287226 -1.403191 2.287222
v -2.287226 3.171257 2.287222
v 2.287222 3.171257 2.287226
v 2.287222 -1.403191 2.287226
vn 1.0000 -0.0000 -0.0000
vn -1.0000 -0.0000 -0.0000
vn -0.0000 -1.0000 -0.0000
vn -0.0000 -0.0000 -1.0000
s 0
f 3//1 7//1 8//1
f 3//1 8//1 4//1
f 1//2 5//2 6//2
f 1//2 6//2 2//2
f 4//3 8//3 5//3
f 4//3 5//3 1//3
f 3//4 4//4 1//4
f 3//4 1//4 2//4
