# Blender 4.1.1
# www.blender.org
mtllib solid_teapot.mtl
o Utah_Teapot
v -1.500000 2.100000 -0.000000
v -1.550000 1.987500 -0.225000
v -1.600000 1.875000 -0.000000
v -2.625000 2.043750 -0.000000
v -2.518750 1.945313 -0.225000
v -2.412500 1.846875 -0.000000
v -3.000000 1.650000 -0.000000
v -2.850000 1.650000 -0.225000
v -2.700000 1.650000 -0.000000
v -1.550000 1.987500 0.225000
v -2.518750 1.945313 0.225000
v -2.850000 1.650000 0.225000
v -2.731250 1.007812 -0.000000
v -2.634375 1.103906 -0.225000
v -2.537500 1.200000 -0.000000
v -1.900000 0.450000 -0.000000
v -1.950000 0.600000 -0.225000
v -2.000000 0.750000 -0.000000
v -2.634375 1.103906 0.225000
v -1.950000 0.600000 0.225000
v 2.800000 2.250000 -0.000000
v 3.000000 2.250000 -0.112500
v 3.200000 2.250000 -0.000000
v 2.825000 2.306250 -0.000000
v 3.126563 2.316797 -0.150000
v 3.428125 2.327344 -0.000000
v 2.700000 2.250000 -0.000000
v 3.000000 2.250000 -0.187500
v 3.300000 2.250000 -0.000000
v 3.000000 2.250000 0.112500
v 3.126563 2.316797 0.150000
v 3.000000 2.250000 0.187500
v 2.387500 1.650000 -0.000000
v 2.537500 1.471875 -0.341250
v 2.687500 1.293750 -0.000000
v 1.700000 1.275000 -0.000000
v 1.700000 0.862500 -0.495000
v 1.700000 0.450000 -0.000000
v 2.537500 1.471875 0.341250
v 1.700000 0.862500 0.495000
v 0.000000 3.000000 -0.000000
v -0.325000 2.831250 -0.000000
v -0.231031 2.831250 -0.231032
v 0.000000 2.831250 -0.325000
v -0.200000 2.550000 -0.000000
v -0.142000 2.550000 -0.142000
v 0.000000 2.550000 -0.200000
v 0.231031 2.831250 -0.231032
v 0.325000 2.831250 -0.000000
v 0.142000 2.550000 -0.142000
v 0.200000 2.550000 -0.000000
v 0.000000 2.831250 0.325000
v 0.231031 2.831250 0.231031
v 0.000000 2.550000 0.200000
v 0.142000 2.550000 0.142000
v -0.231031 2.831250 0.231031
v -0.142000 2.550000 0.142000
v -0.825000 2.400000 -0.000000
v -0.585750 2.400000 -0.585750
v 0.000000 2.400000 -0.825000
v -1.300000 2.250000 -0.000000
v -0.923000 2.250000 -0.923000
v 0.000000 2.250000 -1.300000
v 0.585750 2.400000 -0.585750
v 0.825000 2.400000 -0.000000
v 0.923000 2.250000 -0.923000
v 1.300000 2.250000 -0.000000
v 0.000000 2.400000 0.825000
v 0.585750 2.400000 0.585750
v 0.000000 2.250000 1.300000
v 0.923000 2.250000 0.923000
v -0.585750 2.400000 0.585750
v -0.923000 2.250000 0.923000
v -1.400000 2.250000 -0.000000
v -0.994000 2.250000 -0.994000
v 0.000000 2.250000 -1.400000
v -1.403125 2.348438 -0.000000
v -0.996219 2.348438 -0.996219
v 0.000000 2.348438 -1.403125
v -1.500000 2.250000 -0.000000
v -1.065000 2.250000 -1.065000
v 0.000000 2.250000 -1.500000
v 0.994000 2.250000 -0.994000
v 1.400000 2.250000 -0.000000
v 0.996219 2.348438 -0.996219
v 1.403125 2.348438 -0.000000
v 1.065000 2.250000 -1.065000
v 1.500000 2.250000 -0.000000
v 0.000000 2.250000 1.400000
v 0.994000 2.250000 0.994000
v 0.000000 2.348438 1.403125
v 0.996219 2.348438 0.996219
v 0.000000 2.250000 1.500000
v 1.065000 2.250000 1.065000
v -0.994000 2.250000 0.994000
v -0.996219 2.348438 0.996219
v -1.065000 2.250000 1.065000
v -1.843750 1.471875 -0.000000
v -1.309063 1.471875 -1.309063
v 0.000000 1.471875 -1.843750
v -2.000000 0.750000 -0.000000
v -1.420000 0.750000 -1.420000
v 0.000000 0.750000 -2.000000
v 1.309063 1.471875 -1.309063
v 1.843750 1.471875 -0.000000
v 1.420000 0.750000 -1.420000
v 2.000000 0.750000 -0.000000
v 0.000000 1.471875 1.843750
v 1.309063 1.471875 1.309063
v 0.000000 0.750000 2.000000
v 1.420000 0.750000 1.420000
v -1.309063 1.471875 1.309063
v -1.420000 0.750000 1.420000
v -1.750000 0.234375 -0.000000
v -1.242500 0.234375 -1.242500
v 0.000000 0.234375 -1.750000
v -1.500000 0.000000 0.000000
v -1.065000 -0.000000 -1.065000
v 0.000000 -0.000000 -1.500000
v 1.242500 0.234375 -1.242500
v 1.750000 0.234375 -0.000000
v 1.065000 -0.000000 -1.065000
v 1.500000 0.000000 0.000000
v 0.000000 0.234375 1.750000
v 1.242500 0.234375 1.242500
v 0.000000 0.000000 1.500000
v 1.065000 0.000000 1.065000
v -1.242500 0.234375 1.242500
v -1.065000 0.000000 1.065000
vn 0.0001 -0.0000 -1.0000
vn -0.2873 0.9578 -0.0000
vn -0.0000 1.0000 -0.0000
vn 0.0001 0.0001 -1.0000
vn -0.0000 0.0001 -1.0000
vn -0.0000 -1.0000 -0.0000
vn -0.0000 -0.0001 -1.0000
vn -0.0001 -0.0001 -1.0000
vn 0.1961 -0.9806 -0.0000
vn -0.0000 -0.0000 -1.0000
vn -1.0000 -0.0000 -0.0000
vn 0.1962 -0.9806 -0.0000
vn 1.0000 -0.0000 -0.0001
vn -0.0000 -0.0000 1.0000
vn -0.0000 0.0001 1.0000
vn -0.0000 -0.0001 1.0000
vn -0.0001 -0.0001 1.0000
vn -1.0000 -0.0000 -0.0001
vn -0.2874 0.9578 -0.0001
vn 1.0000 -0.0000 0.0001
vn -0.8290 -0.5592 -0.0000
vn -0.8291 -0.5591 -0.0000
vn -0.0001 -0.0000 -1.0000
vn 1.0000 -0.0000 -0.0000
vn 0.8944 0.4472 -0.0000
vn -0.5145 -0.8575 -0.0000
vn 0.5145 0.8575 -0.0000
vn -0.0001 0.0001 1.0000
vn -0.0001 -0.0000 1.0000
vn 0.0001 -0.0001 1.0000
vn 0.7071 -0.7071 -0.0000
vn -0.0465 0.9958 -0.0791
vn -0.5145 0.8575 -0.0000
vn -0.0464 0.9958 -0.0792
vn 0.0001 -0.0000 1.0000
vn -0.0464 0.9958 -0.0791
vn 0.1415 0.9899 -0.0000
vn -0.7071 0.7071 0.0001
vn -0.7072 0.7071 -0.0000
vn 0.1414 0.9900 -0.0000
vn 0.4856 -0.8742 -0.0000
vn -0.0464 0.9958 0.0792
vn -0.0464 0.9958 0.0791
vn 0.1414 0.9900 0.0001
vn -0.7071 0.7071 -0.0000
vn -0.0465 0.9958 0.0791
vn 0.1414 0.9899 -0.0000
vn -0.9529 0.3032 -0.0000
vn -0.7070 0.7072 -0.0000
vn 0.2156 0.1362 -0.9669
vn 0.4856 -0.8742 -0.0001
vn 0.2156 0.1361 -0.9669
vn 0.9756 -0.2195 -0.0000
vn -0.0000 1.0000 0.0001
vn 0.9756 -0.2194 -0.0000
vn 0.2155 0.1361 -0.9670
vn 0.9756 -0.2195 0.0001
vn 0.2095 -0.9778 -0.0000
vn 0.2156 0.1362 0.9669
vn 0.2157 0.1362 0.9669
vn 0.4857 -0.8741 -0.0000
vn 0.0001 1.0000 -0.0000
vn 0.2156 0.1362 0.9670
vn 0.9756 -0.2195 -0.0001
vn 0.2096 -0.9778 -0.0001
vn -0.6054 -0.5167 -0.6054
vn -0.8575 -0.5144 -0.0000
vn 0.0001 -0.5144 -0.8575
vn -0.7071 0.7071 -0.0001
vn -0.8575 -0.5145 -0.0001
vn -0.4990 0.7085 -0.4990
vn -0.0000 -0.5145 -0.8575
vn -0.4989 0.7085 -0.4991
vn -0.0001 -0.5145 -0.8575
vn -0.0000 0.7071 -0.7071
vn 0.6054 -0.5167 -0.6054
vn 0.8575 -0.5144 0.0001
vn 0.0001 0.7071 -0.7071
vn 0.0001 -0.5145 -0.8575
vn -0.0000 0.7071 -0.7072
vn 0.4990 0.7085 -0.4990
vn 0.8575 -0.5145 -0.0000
vn 0.4991 0.7085 -0.4989
vn 0.8575 -0.5145 -0.0001
vn 0.7071 0.7071 -0.0000
vn -0.0001 -0.5144 0.8575
vn 0.6054 -0.5167 0.6054
vn 0.8575 -0.5144 -0.0000
vn 0.0001 0.7071 0.7071
vn 0.0001 -0.5145 0.8575
vn -0.0000 0.7071 0.7072
vn 0.4990 0.7085 0.4990
vn 0.4990 0.7085 0.4991
vn -0.8575 -0.5144 -0.0001
vn -0.6054 -0.5167 0.6054
vn -0.0000 -0.5145 0.8575
vn -0.8575 -0.5145 0.0001
vn -0.4990 0.7085 0.4990
vn -0.4991 0.7085 0.4990
vn -0.0000 0.7071 0.7071
vn -0.4990 0.7086 -0.4990
vn -0.1961 0.9806 -0.0000
vn -0.1381 0.9807 -0.1381
vn -0.0000 0.9806 -0.1961
vn -0.1382 0.9807 -0.1381
vn -0.7071 0.0001 -0.7071
vn -0.1381 0.9807 -0.1382
vn -0.7071 0.0001 -0.7072
vn 0.4990 0.7086 -0.4990
vn 0.1381 0.9807 -0.1381
vn 0.1961 0.9806 -0.0000
vn 0.1381 0.9807 -0.1382
vn 0.7071 0.0001 -0.7071
vn 0.1382 0.9807 -0.1381
vn 0.7072 -0.0000 -0.7071
vn -0.0000 0.9806 0.1961
vn 0.4990 0.7086 0.4990
vn 0.1381 0.9807 0.1381
vn 0.1381 0.9807 0.1382
vn 0.7071 0.0001 0.7071
vn 0.7072 -0.0000 0.7071
vn 0.1962 0.9806 -0.0000
vn 0.1382 0.9807 0.1381
vn 0.7070 0.0001 0.7072
vn -0.4990 0.7086 0.4990
vn -0.1381 0.9807 0.1381
vn -0.1382 0.9807 0.1381
vn -0.7071 0.0001 0.7071
vn -0.7071 -0.0000 0.7072
vn -0.0000 0.9806 0.1962
vn -0.1381 0.9807 0.1382
vn -0.7072 0.0001 0.7070
vn 0.6656 -0.3376 0.6656
vn -0.0000 1.0000 -0.0001
vn 0.9417 -0.3364 -0.0000
vn 0.6656 -0.3375 0.6656
vn -0.0000 -0.3364 0.9417
vn -0.0001 1.0000 -0.0000
vn 0.0001 1.0000 -0.0001
vn -0.0000 -0.3363 0.9418
vn -0.9417 0.3364 -0.0000
vn -0.9418 0.3363 -0.0000
vn -0.6656 0.3375 -0.6656
vn -0.6656 0.3376 -0.6656
vn -0.0000 0.3363 -0.9417
vn -0.6656 -0.3376 0.6656
vn -0.6656 -0.3375 0.6656
vn -0.9417 -0.3364 -0.0000
vn 0.0001 1.0000 0.0001
vn -0.9418 -0.3363 -0.0000
vn -0.0000 0.3364 -0.9417
vn -0.0000 0.3363 -0.9418
vn 0.6656 0.3375 -0.6656
vn 0.6656 0.3376 -0.6656
vn 0.9417 0.3363 -0.0000
vn -0.6656 -0.3376 -0.6656
vn -0.0000 -0.3363 -0.9418
vn -0.0001 1.0000 0.0001
vn -0.6656 -0.3375 -0.6656
vn -0.9417 -0.3363 -0.0000
vn -0.0000 0.3363 0.9417
vn -0.0000 0.3363 0.9418
vn 0.6656 0.3376 0.6656
vn 0.6656 0.3375 0.6656
vn 0.6656 -0.3376 -0.6656
vn 0.9418 -0.3363 -0.0000
vn -0.0001 1.0000 -0.0001
vn -0.0000 -0.3364 -0.9417
vn 0.6656 -0.3375 -0.6656
vn -0.0000 -0.3363 -0.9417
vn -0.9417 0.3363 -0.0000
vn -0.6656 0.3376 0.6656
vn -0.6656 0.3375 0.6656
vn -0.9635 0.2676 -0.0000
vn -0.6811 0.2687 -0.6811
vn -0.0000 0.2677 -0.9635
vn -0.6811 0.2686 -0.6811
vn -0.7071 -0.0000 -0.7071
vn -0.6811 0.2686 -0.6812
vn -0.0000 0.2676 -0.9635
vn 0.6811 0.2687 -0.6811
vn 0.9417 0.3364 -0.0000
vn 0.9635 0.2677 -0.0000
vn 0.6811 0.2686 -0.6811
vn 0.7071 -0.0000 -0.7071
vn 0.6812 0.2686 -0.6811
vn -0.0000 0.2677 0.9635
vn 0.6811 0.2687 0.6811
vn 0.9418 0.3363 -0.0000
vn 0.9635 0.2676 -0.0000
vn 0.6811 0.2686 0.6812
vn -0.0000 0.2676 0.9635
vn 0.7071 -0.0000 0.7071
vn 0.6812 0.2686 0.6811
vn -0.9635 0.2677 -0.0000
vn -0.6811 0.2687 0.6811
vn -0.0000 0.3364 0.9417
vn -0.6812 0.2686 0.6811
vn -0.7071 -0.0000 0.7071
vn -0.6811 0.2686 0.6812
vn -0.7926 -0.6097 -0.0000
vn -0.5597 -0.6113 -0.5596
vn -0.5596 -0.6113 -0.5597
vn -0.0000 -0.6097 -0.7926
vn -0.5596 -0.6113 -0.5596
vn -0.7926 -0.6097 -0.0001
vn -1.0000 -0.0000 0.0001
vn -0.0001 -0.6097 -0.7926
vn 0.5596 -0.6113 -0.5597
vn 0.5597 -0.6113 -0.5596
vn 0.7926 -0.6097 -0.0000
vn 0.5596 -0.6113 -0.5596
vn 0.0001 -0.6097 -0.7926
vn 0.7926 -0.6097 -0.0001
vn -0.0000 -0.6097 0.7926
vn 0.5596 -0.6112 0.5597
vn 0.5597 -0.6112 0.5596
vn 0.5597 -0.6113 0.5596
vn 0.5596 -0.6113 0.5596
vn 0.0001 -0.6097 0.7926
vn 0.7926 -0.6097 0.0001
vn 1.0000 0.0001 -0.0000
vn -0.5597 -0.6112 0.5596
vn -0.5596 -0.6112 0.5597
vn -0.5596 -0.6113 0.5597
vn -0.5596 -0.6113 0.5596
vn -0.7926 -0.6097 0.0001
vn -0.0001 -0.6097 0.7926
vn 0.5935 0.2977 0.7478
vn -0.0713 0.8576 0.5094
vn -0.3850 0.8616 0.3309
vn -0.9507 0.2989 -0.0825
vn 0.2832 0.2989 0.9113
vn -0.4519 0.8616 -0.2313
vn -0.0340 0.8576 0.5132
vn -0.7286 0.2977 0.6168
vn 0.8508 0.2977 0.4329
vn -0.4864 0.8576 0.1674
vn 0.3309 0.8616 0.3850
vn -0.0825 0.2989 0.9507
vn 0.7478 0.2977 0.5934
vn 0.9113 0.2989 -0.2832
vn 0.3309 0.8616 -0.3849
vn 0.5094 0.8576 -0.0713
vn 0.2575 0.2977 -0.9193
vn 0.2630 0.8576 0.4421
vn 0.3087 0.8616 -0.4030
vn 0.9482 0.2989 -0.1075
vn -0.0713 0.8576 -0.5094
vn 0.5934 0.2977 -0.7478
vn -0.9507 0.2989 0.0824
vn 0.4898 0.8616 0.1334
vn -0.9193 0.2977 -0.2575
vn 0.4421 0.8576 -0.2630
vn -0.4030 0.8616 -0.3087
vn -0.1075 0.2989 -0.9482
vn -0.8371 0.2989 0.4581
vn 0.1334 0.8616 -0.4898
vn -0.5132 0.8576 -0.0340
vn -0.9192 0.2977 0.2576
vt 0.183594 1.000000
vt 0.125000 0.857143
vt 0.125000 1.000000
vt 0.183594 0.853571
vt 0.242188 1.000000
vt 0.242188 0.848214
vt 0.125000 0.750000
vt 0.183594 0.750000
vt 0.242188 0.750000
vt 0.066406 1.000000
vt 0.066406 0.853571
vt 0.007812 1.000000
vt 0.007812 0.848214
vt 0.066406 0.750000
vt 0.007812 0.750000
vt 0.125000 0.645010
vt 0.183594 0.647137
vt 0.242188 0.650036
vt 0.125000 0.517500
vt 0.183594 0.517500
vt 0.242188 0.517500
vt 0.066406 0.647137
vt 0.007812 0.650036
vt 0.066406 0.517500
vt 0.007812 0.517500
vt 0.812500 1.000000
vt 0.750000 0.962500
vt 0.750000 1.000000
vt 0.812500 0.961500
vt 0.875000 1.000000
vt 0.875000 0.960970
vt 0.750000 0.925000
vt 0.812500 0.925000
vt 0.875000 0.925000
vt 1.000000 0.962500
vt 0.937500 1.000000
vt 1.000000 1.000000
vt 0.937500 0.961500
vt 1.000000 0.925000
vt 0.937500 0.925000
vt 0.750000 0.740519
vt 0.812500 0.736251
vt 0.875000 0.733899
vt 0.750000 0.513281
vt 0.812500 0.513281
vt 0.875000 0.513281
vt 1.000000 0.740519
vt 0.937500 0.736251
vt 1.000000 0.513281
vt 0.937500 0.513281
vt 0.375000 0.750000
vt 0.424582 0.650836
vt 0.375000 0.609825
vt 0.445088 0.750000
vt 0.375000 0.515625
vt 0.457864 0.584272
vt 0.492188 0.750000
vt 0.424582 0.849164
vt 0.375000 0.890175
vt 0.457864 0.915728
vt 0.375000 0.984375
vt 0.304912 0.750000
vt 0.325418 0.849164
vt 0.257812 0.750000
vt 0.292136 0.915728
vt 0.325418 0.650836
vt 0.292136 0.584272
vt 0.637748 0.724503
vt 0.625000 0.610328
vt 0.625000 0.713942
vt 0.674388 0.651225
vt 0.643029 0.750000
vt 0.694836 0.750000
vt 0.625000 0.515625
vt 0.707864 0.584272
vt 0.742188 0.750000
vt 0.637748 0.775497
vt 0.674388 0.848775
vt 0.625000 0.786058
vt 0.625000 0.889672
vt 0.707864 0.915728
vt 0.625000 0.984375
vt 0.555164 0.750000
vt 0.612252 0.775497
vt 0.606971 0.750000
vt 0.575612 0.848775
vt 0.507812 0.750000
vt 0.542136 0.915728
vt 0.612252 0.724503
vt 0.575612 0.651225
vt 0.542136 0.584272
vt 0.125000 0.500000
vt 0.000000 0.479000
vt 0.000000 0.500000
vt 0.125000 0.479000
vt 0.250000 0.500000
vt 0.250000 0.479000
vt 0.000000 0.458000
vt 0.125000 0.458000
vt 0.250000 0.458000
vt 0.375000 0.500000
vt 0.375000 0.479000
vt 0.500000 0.500000
vt 0.500000 0.479000
vt 0.375000 0.458000
vt 0.500000 0.458000
vt 0.750000 0.479000
vt 0.625000 0.500000
vt 0.750000 0.500000
vt 0.625000 0.479000
vt 0.750000 0.458000
vt 0.625000 0.458000
vt 1.000000 0.479000
vt 0.875000 0.500000
vt 1.000000 0.500000
vt 0.875000 0.479000
vt 1.000000 0.458000
vt 0.875000 0.458000
vt 0.000000 0.358632
vt 0.125000 0.358622
vt 0.250000 0.358632
vt 0.000000 0.269000
vt 0.125000 0.269000
vt 0.250000 0.269000
vt 0.375000 0.358622
vt 0.500000 0.358632
vt 0.375000 0.269000
vt 0.500000 0.269000
vt 0.750000 0.358632
vt 0.625000 0.358622
vt 0.750000 0.269000
vt 0.625000 0.269000
vt 1.000000 0.358632
vt 0.875000 0.358622
vt 1.000000 0.269000
vt 0.875000 0.269000
vt 0.000000 0.192110
vt 0.125000 0.192134
vt 0.250000 0.192110
vt 0.000000 0.150000
vt 0.125000 0.150000
vt 0.250000 0.150000
vt 0.375000 0.192134
vt 0.500000 0.192110
vt 0.375000 0.150000
vt 0.500000 0.150000
vt 0.750000 0.192110
vt 0.625000 0.192134
vt 0.750000 0.150000
vt 0.625000 0.150000
vt 1.000000 0.192110
vt 0.875000 0.192134
vt 1.000000 0.150000
vt 0.875000 0.150000
s 0
f 2/1/1 4/2/2 1/3/3
f 4/2/2 2/1/4 5/4/5
f 3/5/6 5/4/7 2/1/7
f 5/4/8 3/5/6 6/6/9
f 5/4/10 7/7/11 4/2/2
f 7/7/11 5/4/10 8/8/10
f 6/6/9 8/8/10 5/4/10
f 8/8/10 6/6/12 9/9/13
f 4/2/2 10/10/14 1/3/3
f 10/10/15 4/2/2 11/11/15
f 11/11/16 3/12/6 10/10/16
f 3/12/6 11/11/17 6/13/12
f 7/7/18 11/11/14 4/2/19
f 11/11/14 7/7/11 12/14/15
f 12/14/14 6/13/9 11/11/14
f 6/13/9 12/14/14 9/15/20
f 8/8/10 13/16/21 7/7/11
f 13/16/22 8/8/10 14/17/23
f 9/9/20 14/17/5 8/8/10
f 14/17/10 9/9/24 15/18/25
f 14/17/10 16/19/26 13/16/22
f 16/19/26 14/17/7 17/20/10
f 15/18/25 17/20/10 14/17/10
f 17/20/1 15/18/25 18/21/27
f 13/16/22 12/14/16 7/7/11
f 12/14/28 13/16/22 19/22/29
f 19/22/16 9/15/24 12/14/14
f 9/15/24 19/22/14 15/23/25
f 16/19/26 19/22/30 13/16/22
f 19/22/29 16/19/26 20/24/29
f 20/24/14 15/23/25 19/22/14
f 15/23/25 20/24/14 18/25/27
f 22/26/14 24/27/3 21/28/31
f 24/27/3 22/26/14 25/29/32
f 23/30/33 25/29/34 22/26/35
f 25/29/36 23/30/33 26/31/37
f 25/29/36 27/32/38 24/27/3
f 27/32/39 25/29/32 28/33/10
f 26/31/40 28/33/10 25/29/36
f 28/33/10 26/31/40 29/34/41
f 24/35/3 30/36/10 21/37/31
f 30/36/10 24/35/3 31/38/42
f 31/38/43 23/30/33 30/36/10
f 23/30/33 31/38/43 26/31/44
f 27/39/45 31/38/46 24/35/3
f 31/38/43 27/39/45 32/40/14
f 32/40/14 26/31/47 31/38/43
f 26/31/40 32/40/14 29/34/41
f 28/33/10 33/41/48 27/32/49
f 33/41/48 28/33/10 34/42/50
f 29/34/51 34/42/52 28/33/10
f 34/42/50 29/34/41 35/43/53
f 34/42/50 36/44/54 33/41/48
f 36/44/3 34/42/50 37/45/23
f 35/43/55 37/45/1 34/42/56
f 37/45/23 35/43/57 38/46/58
f 33/47/48 32/40/14 27/39/45
f 32/40/14 33/47/48 39/48/59
f 39/48/60 29/34/61 32/40/14
f 29/34/41 39/48/59 35/43/53
f 36/49/62 39/48/59 33/47/48
f 39/48/59 36/49/3 40/50/14
f 40/50/14 35/43/55 39/48/63
f 35/43/64 40/50/14 38/46/65
f 41/51/3 43/52/66 42/53/67
f 41/51/3 44/54/68 43/52/66
f 43/52/66 45/55/69 42/53/70
f 45/55/39 43/52/66 46/56/71
f 44/54/72 46/56/73 43/52/66
f 46/56/71 44/54/74 47/57/75
f 41/51/3 48/58/76 44/54/72
f 41/51/3 49/59/77 48/58/76
f 48/58/76 47/57/78 44/54/79
f 47/57/80 48/58/76 50/60/81
f 49/59/82 50/60/83 48/58/76
f 50/60/81 49/59/84 51/61/85
f 52/62/86 53/63/87 41/51/3
f 53/63/87 49/59/88 41/51/3
f 54/64/89 53/63/87 52/62/90
f 53/63/87 54/64/91 55/65/92
f 55/65/93 49/59/82 53/63/87
f 49/59/82 55/65/92 51/61/85
f 42/53/94 56/66/95 41/51/3
f 56/66/95 52/62/96 41/51/3
f 45/55/38 56/66/95 42/53/97
f 56/66/95 45/55/39 57/67/98
f 57/67/99 52/62/96 56/66/95
f 52/62/96 57/67/98 54/64/100
f 46/68/101 58/69/102 45/70/45
f 58/69/102 46/68/101 59/71/103
f 47/72/75 59/71/103 46/68/101
f 59/71/103 47/72/75 60/73/104
f 59/71/105 61/74/11 58/69/102
f 61/74/18 59/71/105 62/75/106
f 60/73/104 62/75/106 59/71/107
f 62/75/108 60/73/104 63/76/1
f 50/77/109 60/73/104 47/72/75
f 60/73/104 50/77/109 64/78/110
f 51/79/85 64/78/110 50/77/109
f 64/78/110 51/79/85 65/80/111
f 64/78/112 63/76/10 60/73/104
f 63/76/1 64/78/112 66/81/113
f 65/80/111 66/81/113 64/78/114
f 66/81/115 65/80/111 67/82/20
f 68/83/116 55/84/117 54/85/100
f 55/84/117 68/83/116 69/86/118
f 69/86/118 51/79/85 55/84/117
f 51/79/85 69/86/118 65/80/111
f 70/87/14 69/86/119 68/83/116
f 69/86/119 70/87/29 71/88/120
f 71/88/121 65/80/122 69/86/123
f 65/80/111 71/88/124 67/82/24
f 58/69/102 57/89/125 45/70/45
f 57/89/125 58/69/102 72/90/126
f 72/90/126 54/85/89 57/89/125
f 54/85/100 72/90/126 68/83/116
f 61/74/11 72/90/127 58/69/102
f 72/90/127 61/74/18 73/91/128
f 73/91/129 68/83/130 72/90/131
f 68/83/116 73/91/132 70/87/14
f 75/92/133 77/93/134 74/94/135
f 77/93/134 75/92/136 78/95/3
f 76/96/137 78/95/138 75/92/133
f 78/95/139 76/96/140 79/97/134
f 78/95/62 80/98/141 77/93/62
f 80/98/142 78/95/54 81/99/143
f 79/97/54 81/99/144 78/95/3
f 81/99/143 79/97/54 82/100/145
f 83/101/146 79/97/62 76/96/137
f 79/97/62 83/101/147 85/102/3
f 84/103/148 85/102/134 83/101/146
f 85/102/149 84/103/150 86/104/62
f 85/102/3 82/100/151 79/97/54
f 82/100/152 85/102/3 87/105/153
f 86/104/3 87/105/154 85/102/3
f 87/105/153 86/104/138 88/106/155
f 91/107/62 90/108/156 89/109/157
f 90/108/156 91/107/158 92/110/3
f 92/110/3 84/103/148 90/108/159
f 84/103/160 92/110/54 86/104/62
f 93/111/161 92/110/134 91/107/134
f 92/110/3 93/111/162 94/112/163
f 94/112/163 86/104/3 92/110/134
f 86/104/138 94/112/164 88/106/155
f 77/113/54 95/114/165 74/115/166
f 95/114/165 77/113/167 96/116/3
f 96/116/3 89/109/168 95/114/169
f 89/109/170 96/116/138 91/107/54
f 80/117/171 96/116/62 77/113/62
f 96/116/62 80/117/142 97/118/172
f 97/118/172 91/107/134 96/116/62
f 91/107/134 97/118/173 93/111/161
f 81/99/144 98/119/174 80/98/171
f 98/119/174 81/99/144 99/120/175
f 82/100/151 99/120/175 81/99/144
f 99/120/175 82/100/145 100/121/176
f 99/120/175 101/122/11 98/119/174
f 101/122/11 99/120/177 102/123/178
f 100/121/176 102/123/178 99/120/179
f 102/123/178 100/121/176 103/124/10
f 87/105/154 100/121/180 82/100/145
f 100/121/180 87/105/154 104/125/181
f 88/106/182 104/125/181 87/105/154
f 104/125/181 88/106/155 105/126/183
f 104/125/181 103/124/10 100/121/180
f 103/124/10 104/125/184 106/127/185
f 105/126/183 106/127/185 104/125/186
f 106/127/185 105/126/183 107/128/24
f 108/129/187 94/112/163 93/111/161
f 94/112/163 108/129/187 109/130/188
f 109/130/188 88/106/182 94/112/163
f 88/106/189 109/130/188 105/126/190
f 110/131/14 109/130/191 108/129/192
f 109/130/188 110/131/14 111/132/193
f 111/132/193 105/126/190 109/130/194
f 105/126/190 111/132/120 107/128/24
f 98/133/195 97/118/172 80/117/171
f 97/118/172 98/133/195 112/134/196
f 112/134/196 93/111/197 97/118/172
f 93/111/162 112/134/196 108/129/192
f 101/135/11 112/134/198 98/133/174
f 112/134/196 101/135/11 113/136/199
f 113/136/199 108/129/192 112/134/200
f 108/129/192 113/136/128 110/131/14
f 102/123/178 114/137/201 101/122/11
f 114/137/201 102/123/178 115/138/202
f 103/124/10 115/138/203 102/123/178
f 115/138/203 103/124/10 116/139/204
f 115/138/205 117/140/11 114/137/206
f 117/140/207 115/138/205 118/141/178
f 116/139/208 118/141/178 115/138/205
f 118/141/178 116/139/208 119/142/10
f 106/127/185 116/139/204 103/124/10
f 116/139/204 106/127/185 120/143/209
f 107/128/24 120/143/210 106/127/185
f 120/143/210 107/128/24 121/144/211
f 120/143/212 119/142/10 116/139/213
f 119/142/23 120/143/212 122/145/185
f 121/144/214 122/145/185 120/143/212
f 122/145/185 121/144/214 123/146/24
f 124/147/215 111/132/193 110/131/14
f 111/132/193 124/147/215 125/148/216
f 125/148/217 107/128/24 111/132/193
f 107/128/24 125/148/218 121/144/211
f 126/149/14 125/148/219 124/147/220
f 125/148/219 126/149/14 127/150/193
f 127/150/193 121/144/211 125/148/219
f 121/144/221 127/150/193 123/146/222
f 114/151/201 113/136/199 101/135/11
f 113/136/199 114/151/201 128/152/223
f 128/152/224 110/131/14 113/136/199
f 110/131/14 128/152/225 124/147/215
f 117/153/11 128/152/226 114/151/227
f 128/152/226 117/153/11 129/154/199
f 129/154/199 124/147/215 128/152/226
f 124/147/228 129/154/199 126/149/15
f 66/81/229 83/101/230 76/96/231 63/76/232
f 63/76/233 76/96/234 75/92/235 62/75/236
f 62/75/237 75/92/238 74/94/239 61/74/240
f 73/91/241 61/74/242 74/115/243 95/114/244
f 73/91/245 95/114/246 89/109/247 70/87/248
f 90/108/249 71/88/250 70/87/251 89/109/252
f 71/88/253 90/108/254 84/103/255 67/82/256
f 67/82/257 84/103/258 83/101/259 66/81/260
