# Blender 4.0.2
# www.blender.org
mtllib trench_cube.mtl
o cube
v -2.287222 0.164756 -2.287226
v -2.287222 4.739205 -2.287226
v 2.287226 4.739205 -2.287222
v 2.287226 0.164756 -2.287222
v -2.287226 0.164758 2.287222
v -2.287226 4.739206 2.287221
v 2.287222 4.739206 2.287225
v 2.287222 0.164758 2.287226
v 0.000002 -2.102979 -2.287224
v -0.000002 -2.102978 2.287224
vn 1.0000 -0.0000 -0.0000
vn -1.0000 -0.0000 -0.0000
vn -0.0000 -0.0000 -1.0000
vn -0.7041 -0.7101 -0.0000
vn 0.7041 -0.7101 -0.0000
s 0
f 3//1 7//1 8//1
f 3//1 8//1 4//1
f 1//2 5//2 6//2
f 1//2 6//2 2//2
f 3//3 4//3 9//3 1//3
f 3//3 1//3 2//3
f 5//4 1//4 9//4 10//4
f 4//5 8//5 10//5 9//5
